<svg width="304" height="185" viewBox="0 0 304 185" fill="none" xmlns="http://www.w3.org/2000/svg">
<rect x="6" y="6" width="292" height="137" stroke="black" stroke-width="12"/>
<rect x="140.5" y="151.5" width="23" height="13" fill="black" stroke="black" stroke-width="5"/>
<rect x="103.5" y="169.5" width="98" height="13" fill="black" stroke="black" stroke-width="5"/>
<rect width="28.207" height="7.05174" rx="3.52587" transform="matrix(-0.709045 -0.705164 0.709045 -0.705164 118 65.8633)" fill="black"/>
<rect width="28.207" height="7.05174" rx="3.52587" transform="matrix(0.709045 -0.705164 0.709045 0.705164 98 61.0273)" fill="black"/>
<rect width="28.207" height="7.05174" rx="3.52587" transform="matrix(-0.709045 -0.705164 0.709045 -0.705164 201.293 65.8633)" fill="black"/>
<rect width="28.207" height="7.05174" rx="3.52587" transform="matrix(0.709045 -0.705164 0.709045 0.705164 181.293 61.0273)" fill="black"/>
<rect x="124" y="83" width="56" height="8" fill="black"/>
<path d="M159.5 88.5H177.5V98.5C177.5 103.471 173.471 107.5 168.5 107.5C163.529 107.5 159.5 103.471 159.5 98.5V88.5Z" stroke="black" stroke-width="5"/>
<rect x="166" y="91" width="5" height="9" fill="black"/>
</svg>
