<?xml version="1.0" encoding="UTF-8"?>
<svg version="1.1" xmlns="http://www.w3.org/2000/svg" width="1062" height="650">
<path d="M0 0 C0.66 0 1.32 0 2 0 C2 0.66 2 1.32 2 2 C3.5159375 1.7834375 3.5159375 1.7834375 5.0625 1.5625 C7.0115625 1.2840625 7.0115625 1.2840625 9 1 C10.155 0.814375 11.31 0.62875 12.5 0.4375 C16.74872772 -0.09359096 20.944168 -0.54419082 25.125 0.5625 C27.02779944 1.15081847 27.02779944 1.15081847 29.04638672 0.53344727 C33.09111026 -0.19706364 37.03147038 -0.12286448 41.1328125 -0.09765625 C42.00646454 -0.0962413 42.88011658 -0.09482635 43.78024292 -0.09336853 C46.56186403 -0.08779006 49.34340344 -0.07525079 52.125 -0.0625 C54.00390507 -0.05748138 55.88281143 -0.05291911 57.76171875 -0.04882812 C61.19679388 -0.04066666 64.63183878 -0.03000272 68.06689453 -0.01586914 C70.37791693 -0.00654472 72.68895879 0 75 0 C89.33333333 0 103.66666667 0 118 0 C119.56868527 -0.0019648 121.13737017 -0.00423546 122.70605469 -0.00672913 C135.78077951 -0.02678539 148.85550011 -0.04196344 161.93023682 -0.05181217 C168.64229968 -0.05697469 175.35435087 -0.06402418 182.06640625 -0.07543945 C188.5548905 -0.08646873 195.04336717 -0.09228004 201.53186035 -0.09487724 C204.00704134 -0.09672724 206.48222165 -0.10033973 208.95739746 -0.10573006 C212.41432144 -0.11296395 215.8711947 -0.11398998 219.328125 -0.11352539 C220.86805115 -0.1189183 220.86805115 -0.1189183 222.43908691 -0.12442017 C223.38119019 -0.1230455 224.32329346 -0.12167084 225.29394531 -0.12025452 C226.11098938 -0.12117631 226.92803345 -0.1220981 227.76983643 -0.12304783 C229.97143067 -0.00157629 231.87036473 0.46168746 234 1 C235.66769946 0.6718729 237.3341429 0.3373559 239 0 C242.03209738 -0.15521569 245.06211574 -0.1401573 248.09765625 -0.1328125 C248.96893661 -0.13376923 249.84021698 -0.13472595 250.73789978 -0.13571167 C252.57437208 -0.13639038 254.4108468 -0.13455769 256.24731445 -0.13037109 C259.05620712 -0.12501201 261.86494037 -0.13032989 264.67382812 -0.13671875 C266.46093785 -0.13605804 268.24804748 -0.13477703 270.03515625 -0.1328125 C271.29308739 -0.13584885 271.29308739 -0.13584885 272.57643127 -0.13894653 C273.75301552 -0.13421829 273.75301552 -0.13421829 274.95336914 -0.12939453 C275.64000137 -0.12859894 276.32663361 -0.12780334 277.03407288 -0.12698364 C279 -0 279 -0 281.11671448 0.53504944 C283.6444774 1.1591103 285.44166643 0.51569663 288 0 C291.04421363 -0.14464486 294.08575179 -0.11638451 297.1328125 -0.09765625 C298.00646454 -0.0962413 298.88011658 -0.09482635 299.78024292 -0.09336853 C302.56186403 -0.08779006 305.34340344 -0.07525079 308.125 -0.0625 C310.00390507 -0.05748138 311.88281143 -0.05291911 313.76171875 -0.04882812 C317.19679388 -0.04066666 320.63183878 -0.03000272 324.06689453 -0.01586914 C326.37791693 -0.00654472 328.68895879 0 331 0 C381 0 431 0 481 0 C481 0.66 481 1.32 481 2 C481.77085937 1.9278125 482.54171875 1.855625 483.3359375 1.78125 C484.33882812 1.6884375 485.34171875 1.595625 486.375 1.5 C487.37273438 1.4071875 488.37046875 1.314375 489.3984375 1.21875 C496.28020566 0.64010283 496.28020566 0.64010283 499 2 C499.33 2.33 499.66 2.66 500 3 C500.66 2.34 501.32 1.68 502 1 C502.8353125 1.7425 502.8353125 1.7425 503.6875 2.5 C506.41109668 4.2666573 507.81451733 4.33531397 511 4 C511.66 3.67 512.32 3.34 513 3 C513.66 3.66 514.32 4.32 515 5 C515.99 5.33 516.98 5.66 518 6 C518 6.66 518 7.32 518 8 C518.8971875 8.4021875 518.8971875 8.4021875 519.8125 8.8125 C523.88653433 11.02411864 527.24798145 14.67557902 528.6875 19.125 C529 21 529 21 529 23 C529.515625 23.825 530.03125 24.65 530.5625 25.5 C531.036875 26.325 531.51125 27.15 532 28 C531.67 28.66 531.34 29.32 531 30 C531.33 30.33 531.66 30.66 532 31 C531.56538059 33.35418849 530.9624467 35.64833554 530.375 37.96875 C530.25125 38.6390625 530.1275 39.309375 530 40 C530.33 40.33 530.66 40.66 531 41 C531 42.66666667 531 44.33333333 531 46 C531.33 46.33 531.66 46.66 532 47 C532 46.01 532 45.02 532 44 C532.99 44.33 533.98 44.66 535 45 C534.83242188 45.95261719 534.66484375 46.90523437 534.4921875 47.88671875 C534.28851562 49.14097656 534.08484375 50.39523438 533.875 51.6875 C533.66617188 52.92886719 533.45734375 54.17023437 533.2421875 55.44921875 C532.99271134 59.10686122 533.54735457 60.73154778 535 64 C534.125 67.3125 534.125 67.3125 533 70 C533.66 70 534.32 70 535 70 C534.814375 71.03125 534.62875 72.0625 534.4375 73.125 C534.02692918 76.76148442 534.221691 79.45437009 535 83 C534.34 83 533.68 83 533 83 C533 83.99 533 84.98 533 86 C533.66 86.33 534.32 86.66 535 87 C534.34 88.32 533.68 89.64 533 91 C533.66 91.66 534.32 92.32 535 93 C534.67751743 94.33599921 534.34227417 95.66893378 534 97 C534.28604898 98.67542976 534.61781233 100.34385343 535 102 C535 105 535 105 534.4375 107.3125 C533.92631872 110.45261357 534.37948431 112.89742154 535 116 C535 116.66 535 117.32 535 118 C534.34 118.33 533.68 118.66 533 119 C533 119.66 533 120.32 533 121 C533.66 121.33 534.32 121.66 535 122 C534.835 122.763125 534.67 123.52625 534.5 124.3125 C533.90854604 127.03596236 533.90854604 127.03596236 534 130 C533.979375 131.175625 533.95875 132.35125 533.9375 133.5625 C533.75051638 136.86009947 533.75051638 136.86009947 535 139 C534.36474424 140.67889021 533.69313908 142.34416775 533 144 C532.11092291 147.73412376 531.9791377 151.04033403 532.0625 154.875 C532 158 532 158 531.4375 160.625 C530.97544287 163.13331011 531.2019838 164.60595139 532 167 C531.34 166.67 530.68 166.34 530 166 C530 167.32 530 168.64 530 170 C528.5 171.625 528.5 171.625 527 173 C527 173.66 527 174.32 527 175 C526.34 175 525.68 175 525 175 C524.9175 175.78375 524.835 176.5675 524.75 177.375 C524 180 524 180 521.9375 181.3125 C521.298125 181.539375 520.65875 181.76625 520 182 C519.92572162 185.34252724 519.93453047 187.8035914 521 191 C520.67 191.99 520.34 192.98 520 194 C520.32205743 196.33491639 520.65458149 198.66842508 521 201 C520.67 201.33 520.34 201.66 520 202 C520.09215565 203.52502745 520.24999311 205.0462406 520.4375 206.5625 C521.75514101 218.48971798 521.75514101 218.48971798 520 222 C520.99 222 521.98 222 523 222 C522.979375 223.134375 522.95875 224.26875 522.9375 225.4375 C522.58422523 228.81575674 522.58422523 228.81575674 524 230 C524.48333333 243.775 524.48333333 243.775 521 249 C521.99 249.33 522.98 249.66 524 250 C523.814375 250.928125 523.62875 251.85625 523.4375 252.8125 C522.75876119 256.01343771 522.75876119 256.01343771 524 259 C524.04841995 261.03327939 524.03716145 263.06820397 523.9921875 265.1015625 C523.97542969 266.31457031 523.95867188 267.52757812 523.94140625 268.77734375 C523.89753725 271.31916546 523.84560514 273.86086228 523.78515625 276.40234375 C523.71011983 282.86229777 523.89908561 288.31471676 526.34814453 294.34130859 C527 296 527 296 527 298 C526.34 298 525.68 298 525 298 C524.67 299.32 524.34 300.64 524 302 C524.66 302 525.32 302 526 302 C525.98259766 303.03060547 525.98259766 303.03060547 525.96484375 304.08203125 C525.95582031 304.98308594 525.94679688 305.88414062 525.9375 306.8125 C525.92009766 308.15248047 525.92009766 308.15248047 525.90234375 309.51953125 C525.88990033 312.13413791 525.88990033 312.13413791 527 315 C526.835 315.598125 526.67 316.19625 526.5 316.8125 C525.83801842 319.03159207 525.83801842 319.03159207 526.46484375 321.41015625 C527.22189766 326.48849597 527.10425444 331.49884004 527.0625 336.625 C527.05798828 337.66140625 527.05347656 338.6978125 527.04882812 339.765625 C527.04013963 341.68702348 527.02939028 343.6084146 527.01586914 345.52978516 C526.99102638 349.39684814 527.07461295 352.85852951 527.9375 356.625 C528.11152344 357.40101563 528.28554688 358.17703125 528.46484375 358.9765625 C528.93928529 361.04828247 528.93928529 361.04828247 530 363 C529.34 363.66 528.68 364.32 528 365 C528.30791692 366.671549 528.64386903 368.33805547 529 370 C528.814375 370.66 528.62875 371.32 528.4375 372 C527.82512873 374.79941154 528.80393714 376.467161 530 379 C529.01 379.33 528.02 379.66 527 380 C527.495 380.433125 527.99 380.86625 528.5 381.3125 C530 383 530 383 530 386 C529.34 386 528.68 386 528 386 C528 386.99 528 387.98 528 389 C528.66 389.33 529.32 389.66 530 390 C530 413 530 413 529.375 416.3125 C528.89287485 421.05339735 529.87774058 424.75548116 532 429 C531.34 429.66 530.68 430.32 530 431 C530.33 431.86625 530.66 432.7325 531 433.625 C531.98731341 436.95718275 532.16420974 439.55159538 532 443 C531.01 443 530.02 443 529 443 C529 443.928125 529 444.85625 529 445.8125 C529 447.875 529 449.9375 529 452 C529.20625 453.134375 529.4125 454.26875 529.625 455.4375 C530.02955331 459.28075644 529.65061682 459.77765614 528 463 C527.55188863 465.35564596 527.55188863 465.35564596 527.375 467.75 C527.30023437 468.54921875 527.22546875 469.3484375 527.1484375 470.171875 C527.09945312 470.77515625 527.05046875 471.3784375 527 472 C526.34 472 525.68 472 525 472 C525 472.66 525 473.32 525 474 C524.34 474 523.68 474 523 474 C523 475.98 523 477.96 523 480 C522.01 479.67 521.02 479.34 520 479 C519.67 479.99 519.34 480.98 519 482 C518.01 482.33 517.02 482.66 516 483 C515.67 483.66 515.34 484.32 515 485 C512.66666667 485.66666667 510.33333333 486.33333333 508 487 C507.67 487.66 507.34 488.32 507 489 C506.34 488.835 505.68 488.67 505 488.5 C501.26065515 487.87677586 497.7931513 487.93882014 494 488 C493.01 488 492.02 488 491 488 C490.566875 488.49113281 490.13375 488.98226563 489.6875 489.48828125 C487.20259273 491.71434402 485.26918728 491.29567164 482 491.1875 C480.948125 491.16042969 479.89625 491.13335937 478.8125 491.10546875 C477.4203125 491.05326172 477.4203125 491.05326172 476 491 C475.01 491 474.02 491 473 491 C472.319375 490.79375 471.63875 490.5875 470.9375 490.375 C470.298125 490.25125 469.65875 490.1275 469 490 C468.34 490.66 467.68 491.32 467 492 C465.41796683 491.79364785 463.83678233 491.57413806 462.265625 491.296875 C455.88161643 490.46034974 449.27418358 490.55211148 443 492 C442.67 491.01 442.34 490.02 442 489 C441.67 489.99 441.34 490.98 441 492 C440.34 492 439.68 492 439 492 C438.67 491.34 438.34 490.68 438 490 C436.6696875 490.309375 436.6696875 490.309375 435.3125 490.625 C432 491 432 491 429.6875 490.0625 C426.37445299 488.75269072 423.705777 488.88694476 420.18359375 489.02734375 C417.96167107 488.99952003 416.14286335 488.54364398 414 488 C413.34 488.185625 412.68 488.37125 412 488.5625 C410 489 410 489 408.125 487.9375 C405.90145625 486.66805226 405.90145625 486.66805226 403.125 488 C400 489 400 489 397.1875 488 C392.85001233 486.63921956 389.22328354 487.39959782 385 489 C384.67 489.66 384.34 490.32 384 491 C382.083412 491.02712153 380.1667127 491.04645097 378.25 491.0625 C376.64898438 491.07990234 376.64898438 491.07990234 375.015625 491.09765625 C372.43622072 491.01412632 370.46276234 490.65708155 368 490 C366.68 490 365.36 490 364 490 C364 490.66 364 491.32 364 492 C362.68 492 361.36 492 360 492 C360 491.34 360 490.68 360 490 C355.0998976 490.67056739 355.0998976 490.67056739 350.25 491.625 C348 492 348 492 345 491 C345.33 490.34 345.66 489.68 346 489 C345.319375 489.391875 344.63875 489.78375 343.9375 490.1875 C339.84071199 491.32065413 337.7999421 489.69640272 334 488 C331.39719432 488.32041397 331.39719432 488.32041397 329 489 C327.33246645 488.6710308 325.66592181 488.3370362 324 488 C322.12665986 487.91079333 320.25045579 487.86983346 318.375 487.875 C317.43398438 487.87242187 316.49296875 487.86984375 315.5234375 487.8671875 C312.87322493 487.89452002 312.87322493 487.89452002 310 489 C309.01 488.67 308.02 488.34 307 488 C305.33637583 487.65179959 303.67004829 487.31595508 302 487 C301.67 487.66 301.34 488.32 301 489 C300.67 488.34 300.34 487.68 300 487 C299.67 487.66 299.34 488.32 299 489 C297.02 488.67 295.04 488.34 293 488 C292.67 488.66 292.34 489.32 292 490 C288.9375 490.625 288.9375 490.625 286 491 C286 490.34 286 489.68 286 489 C285.63132812 489.49886719 285.26265625 489.99773437 284.8828125 490.51171875 C282.14963131 492.6721794 280.27834244 492.16103507 276.875 491.8125 C275.79992187 491.71582031 274.72484375 491.61914062 273.6171875 491.51953125 C272.75351562 491.34808594 271.88984375 491.17664063 271 491 C270.67 490.34 270.34 489.68 270 489 C270 489.99 270 490.98 270 492 C269.401875 491.835 268.80375 491.67 268.1875 491.5 C265.88655664 490.8885876 265.88655664 490.8885876 263 491 C260 491 260 491 258.125 490.4375 C255.50607028 489.89830859 253.59875071 490.46692293 251 491 C250.01 490.67 249.02 490.34 248 490 C248 490.66 248 491.32 248 492 C247.01 491.62875 246.02 491.2575 245 490.875 C240.53374034 489.55335173 237.39066568 490.71308075 233 492 C232.67 491.67 232.34 491.34 232 491 C230.47820413 495.76750114 230.97789294 500.64561895 231.0625 505.58984375 C231.0078064 508.57406314 230.59164928 511.09598814 230 514 C230.2558021 515.98246625 230.5136072 517.96497759 230.8125 519.94140625 C231.09376035 523.0294105 230.47826205 525.95107942 230 529 C230.33 529.99 230.66 530.98 231 532 C230.01 532 229.02 532 228 532 C228.33 533.32 228.66 534.64 229 536 C228.34 536 227.68 536 227 536 C227 537.65 227 539.3 227 541 C227.66 541.33 228.32 541.66 229 542 C228.814375 542.78375 228.62875 543.5675 228.4375 544.375 C227.74037734 546.97089775 227.74037734 546.97089775 229 549 C228.34 549 227.68 549 227 549 C227 549.66 227 550.32 227 551 C227.66 551.33 228.32 551.66 229 552 C228.360625 552.28875 227.72125 552.5775 227.0625 552.875 C224.84793921 553.82823451 224.84793921 553.82823451 224 556 C223.67 556.33 223.34 556.66 223 557 C223.99 557 224.98 557 226 557 C225.34 558.98 224.68 560.96 224 563 C224.66 563 225.32 563 226 563 C226 563.66 226 564.32 226 565 C224.68 565.66 223.36 566.32 222 567 C222 568.32 222 569.64 222 571 C221 572 220 573 219 574 C218.27954236 575.9812585 217.61998741 577.98504093 217 580 C215.35909721 584.13792878 213.69406268 587.48600521 211 591 C210.71125 591.825 210.4225 592.65 210.125 593.5 C209 596 209 596 206.5625 597.875 C203.36602196 600.52573788 202.6074829 603.22590971 201 607 C199 608.5 199 608.5 197 609 C196.01 608.67 195.02 608.34 194 608 C193.7525 608.78375 193.505 609.5675 193.25 610.375 C191.84610901 613.32317108 190.99324263 613.9024777 188 615 C188 615.66 188 616.32 188 617 C187.01 617 186.02 617 185 617 C185.33 617.99 185.66 618.98 186 620 C184.35 619.67 182.7 619.34 181 619 C180.91105469 619.62519531 180.82210937 620.25039063 180.73046875 620.89453125 C180 623 180 623 178.36328125 624.01171875 C177.34814453 624.34623047 177.34814453 624.34623047 176.3125 624.6875 C175.59707031 624.9246875 174.88164063 625.161875 174.14453125 625.40625 C171.45084436 626.15204309 168.77244279 626.65344465 166 627 C165.67 627.99 165.34 628.98 165 630 C162.10441559 631.4477922 160.25811062 632 157 632 C156.67 632.66 156.34 633.32 156 634 C153.03 634 150.06 634 147 634 C146.67 634.66 146.34 635.32 146 636 C143.51330954 636.86077747 141.04869904 637.13351592 138.4375 637.5 C135.02767813 637.8927843 135.02767813 637.8927843 132 639 C131.67 639.66 131.34 640.32 131 641 C130.32453125 640.90460937 129.6490625 640.80921875 128.953125 640.7109375 C128.06109375 640.60007812 127.1690625 640.48921875 126.25 640.375 C125.36828125 640.25898437 124.4865625 640.14296875 123.578125 640.0234375 C120.73452909 639.99758663 119.45437642 640.66881279 117 642 C114.25 641.625 114.25 641.625 112 641 C111.34 641.99 110.68 642.98 110 644 C109.01 643.67 108.02 643.34 107 643 C107 642.67 107 642.34 107 642 C102.87026372 642.56739868 102.87026372 642.56739868 99 644 C98.67 643.34 98.34 642.68 98 642 C96.02 642 94.04 642 92 642 C91.67 642.66 91.34 643.32 91 644 C89.96875 643.814375 88.9375 643.62875 87.875 643.4375 C84.20117365 643.02271315 81.58680961 643.28263808 78 644 C74.19840927 644 70.57666995 643.97968183 66.8125 643.5 C59.33115892 642.59970482 59.33115892 642.59970482 51.9375 643.5625 C48.9024286 644.2478387 46.04918272 643.45173077 43 643 C42.34 643.33 41.68 643.66 41 644 C39.865625 643.835 38.73125 643.67 37.5625 643.5 C34.04687076 642.73714606 34.04687076 642.73714606 31 644 C29.65079366 644.09123238 28.29759813 644.13065378 26.9453125 644.1328125 C25.77548828 644.13474609 25.77548828 644.13474609 24.58203125 644.13671875 C23.77121094 644.13285156 22.96039063 644.12898437 22.125 644.125 C21.32191406 644.12886719 20.51882813 644.13273438 19.69140625 644.13671875 C15.62866848 644.13002561 11.98725237 643.83383605 8 643 C7.34 643.33 6.68 643.66 6 644 C4.33388095 644.042721 2.66617115 644.04063832 1 644 C0.01 644 -0.98 644 -2 644 C-4.57703714 643.72851311 -7.1495077 643.42715107 -9.72265625 643.12109375 C-12.0321863 642.81022848 -12.0321863 642.81022848 -14 644 C-15.134375 643.835 -16.26875 643.67 -17.4375 643.5 C-20.95312924 642.73714606 -20.95312924 642.73714606 -24 644 C-24.99 644 -25.98 644 -27 644 C-28.82414297 644.0084397 -30.64828579 644.01691477 -32.47242737 644.02565002 C-35.52921751 644.03893254 -38.58601377 644.04712809 -41.64282227 644.05493164 C-43.25773769 644.05998283 -44.87264849 644.06682275 -46.48754883 644.07543945 C-48.81592935 644.08753309 -51.14425012 644.09323235 -53.47265625 644.09765625 C-54.55861839 644.10539818 -54.55861839 644.10539818 -55.66651917 644.11329651 C-60.77225731 644.11387135 -60.77225731 644.11387135 -63 643 C-64.9649039 643.24561299 -66.92977563 643.49148487 -68.89453125 643.73828125 C-72.99631057 644.0839658 -77.0728445 644.11875811 -81.1875 644.125 C-82.34572266 644.13164673 -82.34572266 644.13164673 -83.52734375 644.13842773 C-87.81177803 644.12780899 -91.76568418 643.7067902 -96 643 C-96.66 643.33 -97.32 643.66 -98 644 C-98.99 643.67 -99.98 643.34 -101 643 C-102.33626904 643.32136265 -103.6690997 643.65708123 -105 644 C-107.14688777 644.09282514 -109.29641998 644.13068518 -111.4453125 644.1328125 C-112.68667969 644.13410156 -113.92804688 644.13539063 -115.20703125 644.13671875 C-116.49996094 644.13285156 -117.79289062 644.12898437 -119.125 644.125 C-121.07599609 644.13080078 -121.07599609 644.13080078 -123.06640625 644.13671875 C-124.30519531 644.13542969 -125.54398437 644.13414062 -126.8203125 644.1328125 C-128.52598389 644.13112061 -128.52598389 644.13112061 -130.26611328 644.12939453 C-133 644 -133 644 -135 643 C-136.88169679 643.09716853 -136.88169679 643.09716853 -139.00244141 643.42919922 C-144.00714825 644.05121439 -148.9225457 644.14463267 -153.9609375 644.1328125 C-154.87332184 644.13376923 -155.78570618 644.13472595 -156.72573853 644.13571167 C-158.63665842 644.13638728 -160.5475807 644.1345766 -162.45849609 644.13037109 C-165.38774704 644.12497652 -168.31684727 644.13035614 -171.24609375 644.13671875 C-173.10937534 644.13605859 -174.97265683 644.13477871 -176.8359375 644.1328125 C-177.71091888 644.13483673 -178.58590027 644.13686096 -179.48739624 644.13894653 C-180.298992 644.13579437 -181.11058777 644.13264221 -181.94677734 644.12939453 C-182.65909515 644.12859894 -183.37141296 644.12780334 -184.10531616 644.12698364 C-186 644 -186 644 -189 643 C-189.66 643.165 -190.32 643.33 -191 643.5 C-193 644 -193 644 -196 643 C-198.33487701 643.32234284 -200.66793565 643.65790146 -203 644 C-206.08623788 644.1449614 -209.16858478 644.14040943 -212.2578125 644.1328125 C-213.1238913 644.13376923 -213.98997009 644.13472595 -214.8822937 644.13571167 C-216.70261712 644.13638874 -218.52294301 644.13456761 -220.34326172 644.13037109 C-223.12342755 644.12500304 -225.9034328 644.13033886 -228.68359375 644.13671875 C-230.45833369 644.13605814 -232.23307353 644.13477733 -234.0078125 644.1328125 C-234.83499786 644.13483673 -235.66218323 644.13686096 -236.51443481 644.13894653 C-240.50856564 644.12276089 -244.07815846 643.81592869 -248 643 C-248.66 643.33 -249.32 643.66 -250 644 C-251.66611905 644.042721 -253.33382885 644.04063832 -255 644 C-255.99 644 -256.98 644 -258 644 C-260.57703714 643.72851311 -263.1495077 643.42715107 -265.72265625 643.12109375 C-268.0321863 642.81022848 -268.0321863 642.81022848 -270 644 C-271.134375 643.835 -272.26875 643.67 -273.4375 643.5 C-276.95312924 642.73714606 -276.95312924 642.73714606 -280 644 C-280.99 644 -281.98 644 -283 644 C-284.82414297 644.0084397 -286.64828579 644.01691477 -288.47242737 644.02565002 C-291.52921751 644.03893254 -294.58601377 644.04712809 -297.64282227 644.05493164 C-299.25773769 644.05998283 -300.87264849 644.06682275 -302.48754883 644.07543945 C-304.81592935 644.08753309 -307.14425012 644.09323235 -309.47265625 644.09765625 C-310.55861839 644.10539818 -310.55861839 644.10539818 -311.66651917 644.11329651 C-316.77225731 644.11387135 -316.77225731 644.11387135 -319 643 C-320.9649039 643.24561299 -322.92977563 643.49148487 -324.89453125 643.73828125 C-328.99631057 644.0839658 -333.0728445 644.11875811 -337.1875 644.125 C-338.34572266 644.13164673 -338.34572266 644.13164673 -339.52734375 644.13842773 C-343.81177803 644.12780899 -347.76568418 643.7067902 -352 643 C-352.66 643.33 -353.32 643.66 -354 644 C-354.99 643.67 -355.98 643.34 -357 643 C-358.33471135 643.32777203 -359.66776991 643.66228433 -361 644 C-363.24907152 644.06790675 -365.50001605 644.08499984 -367.75 644.0625 C-368.92046875 644.05347656 -370.0909375 644.04445313 -371.296875 644.03515625 C-372.18890625 644.02355469 -373.0809375 644.01195312 -374 644 C-374.33 643.34 -374.66 642.68 -375 642 C-375.99 642 -376.98 642 -378 642 C-380.00309329 641.68578929 -382.00371336 641.3548954 -384 641 C-384.33 641.66 -384.66 642.32 -385 643 C-385.7425 642.79375 -386.485 642.5875 -387.25 642.375 C-389.95552088 641.74277642 -389.95552088 641.74277642 -392 643 C-394.70606979 644.35303489 -396.1328371 643.7884698 -399 643 C-399.7425 642.87625 -400.485 642.7525 -401.25 642.625 C-401.8275 642.41875 -402.405 642.2125 -403 642 C-403.33 641.01 -403.66 640.02 -404 639 C-404.721875 639.33 -405.44375 639.66 -406.1875 640 C-409.01697427 641.00603529 -411.02895466 641.16977402 -414 641 C-413.67 640.34 -413.34 639.68 -413 639 C-415.37403971 636.62596029 -416.77476889 636.57888764 -420 636 C-422.01879432 633.98120568 -423.4214052 631.3678922 -425 629 C-427.05925139 628.27617533 -427.05925139 628.27617533 -429 628 C-429 626.68 -429 625.36 -429 624 C-428.34 624 -427.68 624 -427 624 C-427.72324656 621.03168574 -427.72324656 621.03168574 -429.515625 619.58984375 C-431.40359945 617.56772375 -431.51085055 616.28972352 -431.75 613.5625 C-431.82734375 612.80066406 -431.9046875 612.03882813 -431.984375 611.25390625 C-432.00020721 608.97011059 -431.59430239 607.19261565 -431 605 C-431 600.38467583 -431.1026983 596.36256925 -433.6875 592.4375 C-435 590 -435 590 -434.1875 586.875 C-433.795625 585.92625 -433.40375 584.9775 -433 584 C-432.84188612 580.94729537 -432.84188612 580.94729537 -434 578 C-433.34 577.67 -432.68 577.34 -432 577 C-432.66 575.35 -433.32 573.7 -434 572 C-433.34 571.67 -432.68 571.34 -432 571 C-432.495 569.515 -432.495 569.515 -433 568 C-433.73245718 564.82601888 -434 562.30302978 -434 559 C-433 558 -432 557 -431 556 C-431.66 556 -432.32 556 -433 556 C-433.38897161 554.37828761 -433.76078298 552.75245075 -434.125 551.125 C-434.43824219 549.76761719 -434.43824219 549.76761719 -434.7578125 548.3828125 C-434.83773437 547.59648438 -434.91765625 546.81015625 -435 546 C-434.34 545.34 -433.68 544.68 -433 544 C-433.66 543.67 -434.32 543.34 -435 543 C-435 541.68 -435 540.36 -435 539 C-434.34 538.67 -433.68 538.34 -433 538 C-433.99 536.515 -433.99 536.515 -435 535 C-434.74889902 532.65639085 -434.41434251 530.32031805 -434 528 C-434 527.01 -434 526.02 -434 525 C-433.34 525.33 -432.68 525.66 -432 526 C-432 525.34 -432 524.68 -432 524 C-432.66 523.67 -433.32 523.34 -434 523 C-433.690625 522.13375 -433.690625 522.13375 -433.375 521.25 C-432.91338739 518.48032433 -433.57055055 517.35438733 -435 515 C-434.34 514.67 -433.68 514.34 -433 514 C-433.495 512.515 -433.495 512.515 -434 511 C-434.33 511 -434.66 511 -435 511 C-435 509.35 -435 507.7 -435 506 C-434.505 507.485 -434.505 507.485 -434 509 C-432.43727811 504.60746227 -432.43727811 504.60746227 -432 500 C-431.649375 499.05125 -431.29875 498.1025 -430.9375 497.125 C-429.92010248 493.73367495 -430.16077611 492.35689555 -431 489 C-431.20235105 484.56092381 -430.64612752 480.69204407 -429.625 476.375 C-429.36976563 475.26898438 -429.11453125 474.16296875 -428.8515625 473.0234375 C-428.12548136 470.44551639 -427.30400531 468.3245312 -426 466 C-425.01 466.33 -424.02 466.66 -423 467 C-422.95875 466.236875 -422.9175 465.47375 -422.875 464.6875 C-422 462 -422 462 -419.1875 460.125 C-415.85531947 458.94893628 -415.18306515 459.04508045 -412 460 C-409.33393981 459.00974907 -408.28610235 458.5722047 -407 456 C-405.35 456.33 -403.7 456.66 -402 457 C-402 456.34 -402 455.68 -402 455 C-401.34 455 -400.68 455 -400 455 C-400.07068632 454.39367894 -400.14137264 453.78735788 -400.21420097 453.16266346 C-400.87719601 447.0984384 -401.14369246 441.13700823 -401.12939453 435.03979492 C-401.13114685 434.10026978 -401.13289917 433.16074463 -401.13470459 432.19274902 C-401.13906602 429.12196953 -401.13620659 426.05124872 -401.1328125 422.98046875 C-401.1334869 420.83197519 -401.13445806 418.6834817 -401.13571167 416.5349884 C-401.13718066 412.04911568 -401.13505877 407.56326296 -401.13037109 403.07739258 C-401.12465703 397.32965356 -401.12796846 391.58196108 -401.13394356 385.83422375 C-401.13755607 381.40503081 -401.1364077 376.97584892 -401.13381577 372.54665565 C-401.1331493 370.42677111 -401.13396512 368.30688555 -401.13629532 366.18700218 C-401.13883501 363.22905182 -401.13496336 360.27117715 -401.12939453 357.31323242 C-401.13141876 356.43989761 -401.13344299 355.56656281 -401.13552856 354.66676331 C-401.12141627 350.62001229 -400.89560005 346.96496952 -400 343 C-400.31744857 341.33023496 -400.65365796 339.66401204 -401 338 C-401.15486523 335.04080943 -401.14017352 332.08379637 -401.1328125 329.12109375 C-401.13376923 328.27200943 -401.13472595 327.42292511 -401.13571167 326.54811096 C-401.13639028 324.7587171 -401.13455831 322.96932073 -401.13037109 321.17993164 C-401.12501168 318.44346591 -401.13033032 315.70716382 -401.13671875 312.97070312 C-401.13605804 311.22916631 -401.13477703 309.48762959 -401.1328125 307.74609375 C-401.13483673 306.92934677 -401.13686096 306.11259979 -401.13894653 305.27110291 C-401.12406999 301.6636839 -400.88977474 298.47884486 -400 295 C-400.09084705 292.73099902 -400.09084705 292.73099902 -400.4375 290.4375 C-404.19016988 262.26872485 -401 231.48977482 -401 203 C-400.34 203 -399.68 203 -399 203 C-399.99 202.01 -399.99 202.01 -401 201 C-400.66666667 199.33333333 -400.33333333 197.66666667 -400 196 C-400.185625 194.824375 -400.37125 193.64875 -400.5625 192.4375 C-401.01711353 188.86553655 -400.75543406 187.96229498 -399 185 C-399.33 184.34 -399.66 183.68 -400 183 C-399.34 183 -398.68 183 -398 183 C-397.15545644 179.62182575 -396.89155081 177.32534757 -398 174 C-397.01 173.67 -396.02 173.34 -395 173 C-394.67 170.69 -394.34 168.38 -394 166 C-393.01 165.67 -392.02 165.34 -391 165 C-391 163.68 -391 162.36 -391 161 C-389.6078125 160.5978125 -389.6078125 160.5978125 -388.1875 160.1875 C-385.04779064 159.30992011 -385.04779064 159.30992011 -383.65625 157.4375 C-381.25176837 155.35059142 -379.43473673 155.70230341 -376.3125 155.8125 C-375.31863281 155.83957031 -374.32476562 155.86664063 -373.30078125 155.89453125 C-372.54152344 155.92933594 -371.78226563 155.96414062 -371 156 C-371 154.68 -371 153.36 -371 152 C-367 152 -367 152 -364 153 C-363.34 152.67 -362.68 152.34 -362 152 C-360.45976004 151.93049459 -358.91665012 151.91547643 -357.375 151.9375 C-356.55773437 151.94652344 -355.74046875 151.95554688 -354.8984375 151.96484375 C-353.95871094 151.98224609 -353.95871094 151.98224609 -353 152 C-352.67 152.66 -352.34 153.32 -352 154 C-351.34 153.34 -350.68 152.68 -350 152 C-347.6335144 151.75949097 -347.6335144 151.75949097 -344.63232422 151.77294922 C-342.95080765 151.77317581 -342.95080765 151.77317581 -341.23532104 151.77340698 C-340.02071198 151.78372955 -338.80610291 151.79405212 -337.5546875 151.8046875 C-336.31453888 151.8075174 -335.07439026 151.81034729 -333.79666138 151.81326294 C-330.49875367 151.82257826 -327.20104028 151.8405511 -323.90319824 151.8626709 C-320.5383543 151.88312526 -317.17348193 151.89226377 -313.80859375 151.90234375 C-307.20565277 151.92443481 -300.60284229 151.95793517 -294 152 C-294 152.66 -294 153.32 -294 154 C-293.071875 153.67 -292.14375 153.34 -291.1875 153 C-288 152 -288 152 -285 152 C-285 152.66 -285 153.32 -285 154 C-284.38511719 153.91621094 -283.77023437 153.83242187 -283.13671875 153.74609375 C-282.32847656 153.64425781 -281.52023437 153.54242188 -280.6875 153.4375 C-279.88699219 153.33308594 -279.08648437 153.22867188 -278.26171875 153.12109375 C-276 153 -276 153 -273 154 C-272.67 154.66 -272.34 155.32 -272 156 C-271.67 155.34 -271.34 154.68 -271 154 C-268.69 154.33 -266.38 154.66 -264 155 C-264 155.66 -264 156.32 -264 157 C-261.03 157.33 -258.06 157.66 -255 158 C-255 158.66 -255 159.32 -255 160 C-254.67 160.33 -254.34 160.66 -254 161 C-254 161.66 -254 162.32 -254 163 C-253.34 163.33 -252.68 163.66 -252 164 C-252 164.66 -252 165.32 -252 166 C-251.34 166.66 -250.68 167.32 -250 168 C-249.40234375 169.98828125 -249.40234375 169.98828125 -248.9375 172.3125 C-248.77378906 173.11171875 -248.61007813 173.9109375 -248.44140625 174.734375 C-248.29574219 175.48203125 -248.15007812 176.2296875 -248 177 C-247.79375 178.010625 -247.5875 179.02125 -247.375 180.0625 C-247.25125 180.701875 -247.1275 181.34125 -247 182 C-245.68 182 -244.36 182 -243 182 C-241.90341064 178.71023192 -242.20046862 177.28696233 -243 174 C-242.34 173.67 -241.68 173.34 -241 173 C-241 171.35 -241 169.7 -241 168 C-240.34 167.67 -239.68 167.34 -239 167 C-238.34 166.01 -237.68 165.02 -237 164 C-237.33 163.67 -237.66 163.34 -238 163 C-235.09492679 160.57910566 -232.36852957 158.68426478 -229 157 C-228.67 156.34 -228.34 155.68 -228 155 C-226.01432292 155.32552083 -224.02864583 155.65104167 -222.04296875 155.9765625 C-219.68244176 156.19577848 -219.68244176 156.19577848 -217 154 C-215.68 154 -214.36 154 -213 154 C-212.21625 153.835 -211.4325 153.67 -210.625 153.5 C-207.70289746 152.94340904 -204.96854386 153 -202 153 C-201.01 152.67 -200.02 152.34 -199 152 C-199 152.66 -199 153.32 -199 154 C-198.43909668 153.8570752 -197.87819336 153.71415039 -197.30029297 153.56689453 C-189.8637346 151.85811281 -182.72889234 151.7675537 -175.125 151.875 C-173.91585938 151.88402344 -172.70671875 151.89304688 -171.4609375 151.90234375 C-169.23189272 151.91968076 -167.00287311 151.94115058 -164.77392578 151.96826172 C-161.85776107 152.00162745 -158.94339211 152.01681293 -156.02734375 151.96484375 C-140.47723133 151.76138434 -140.47723133 151.76138434 -136 154 C-135.67 153.34 -135.34 152.68 -135 152 C-134.01 152 -133.02 152 -132 152 C-131.855625 151.236875 -131.71125 150.47375 -131.5625 149.6875 C-131 147 -131 147 -130 144 C-130.31478446 142.66216607 -130.64587656 141.32796291 -131 140 C-130.67 139.67 -130.34 139.34 -130 139 C-129.92677138 136.70940887 -129.91641106 134.41666433 -129.9375 132.125 C-129.95103516 130.24167969 -129.95103516 130.24167969 -129.96484375 128.3203125 C-129.97644531 127.22460938 -129.98804688 126.12890625 -130 125 C-130 121.73917026 -129.3468605 119.17362389 -128.4296875 116.0703125 C-127.17990622 111.68727675 -126.86763218 108.52947129 -128 104 C-127.34 104 -126.68 104 -126 104 C-126.17917969 103.38511719 -126.35835938 102.77023438 -126.54296875 102.13671875 C-126.86201172 100.92435547 -126.86201172 100.92435547 -127.1875 99.6875 C-127.40792969 98.88699219 -127.62835938 98.08648437 -127.85546875 97.26171875 C-127.90316406 96.51535156 -127.95085937 95.76898438 -128 95 C-127.03515098 93.96604334 -126.0325956 92.96630551 -125 92 C-124.53525133 89.89316552 -124.53525133 89.89316552 -124.5 87.625 C-124.18850288 83.60149551 -123.16540838 81.42856327 -121 78 C-120.6503582 75.66905466 -120.31445513 73.33595238 -120 71 C-119.34 70.67 -118.68 70.34 -118 70 C-118.33 68.68 -118.66 67.36 -119 66 C-118.34 65.67 -117.68 65.34 -117 65 C-116.34786708 62.97536745 -116.34786708 62.97536745 -116 61 C-115.34 61.33 -114.68 61.66 -114 62 C-113.87625 61.195625 -113.7525 60.39125 -113.625 59.5625 C-113.315625 58.2940625 -113.315625 58.2940625 -113 57 C-112.34 56.67 -111.68 56.34 -111 56 C-111 55.34 -111 54.68 -111 54 C-110.34 54 -109.68 54 -109 54 C-109.3403125 53.1028125 -109.3403125 53.1028125 -109.6875 52.1875 C-109.790625 51.465625 -109.89375 50.74375 -110 50 C-108.6875 48.4375 -108.6875 48.4375 -107 47 C-106.34 46.01 -105.68 45.02 -105 44 C-104.34 44 -103.68 44 -103 44 C-102.67 43.34 -102.34 42.68 -102 42 C-100.0625 39.875 -100.0625 39.875 -98 38 C-97.34 38 -96.68 38 -96 38 C-96.33 37.01 -96.66 36.02 -97 35 C-95.68 35.33 -94.36 35.66 -93 36 C-92.7763932 33.0745356 -92.7763932 33.0745356 -94 31 C-93.071875 30.7525 -92.14375 30.505 -91.1875 30.25 C-87.77824707 28.91303807 -86.96587748 27.94881621 -85 25 C-84.34 25 -83.68 25 -83 25 C-82.67 24.34 -82.34 23.68 -82 23 C-81.01 23 -80.02 23 -79 23 C-79 22.34 -79 21.68 -79 21 C-77.02 21 -75.04 21 -73 21 C-73 20.34 -73 19.68 -73 19 C-71.5459375 18.814375 -71.5459375 18.814375 -70.0625 18.625 C-69.051875 18.41875 -68.04125 18.2125 -67 18 C-66.67 17.34 -66.34 16.68 -66 16 C-65.319375 15.505 -64.63875 15.01 -63.9375 14.5 C-63.298125 14.005 -62.65875 13.51 -62 13 C-62 12.34 -62 11.68 -62 11 C-60.88625 11.309375 -60.88625 11.309375 -59.75 11.625 C-56.63082549 12.05034198 -55.64543842 11.55077425 -53 10 C-52.34 10 -51.68 10 -51 10 C-48.9921136 9.35747635 -46.99117408 8.69258229 -45 8 C-45 7.34 -45 6.68 -45 6 C-41.7 6.33 -38.4 6.66 -35 7 C-34.67 6.34 -34.34 5.68 -34 5 C-33.01 5 -32.02 5 -31 5 C-30.67 4.34 -30.34 3.68 -30 3 C-29.0925 3.185625 -28.185 3.37125 -27.25 3.5625 C-24.15002881 3.97980381 -22.88481985 3.87418783 -20 3 C-16.25078572 2.3974477 -12.80409151 2 -9 2 C-7.41471795 1.85302021 -5.8311763 1.68602074 -4.25 1.5 C-3.45078125 1.4071875 -2.6515625 1.314375 -1.828125 1.21875 C-0.92320312 1.11046875 -0.92320312 1.11046875 0 1 C0 0.67 0 0.34 0 0 Z M512 6 C513 8 513 8 513 8 Z M516 7 C515.34 7.66 514.68 8.32 514 9 C514.99 9 515.98 9 517 9 C516.67 8.34 516.34 7.68 516 7 Z M528 24 C529 26 529 26 529 26 Z M532 49 C533 51 533 51 533 51 Z M356 190 C355.01 190.99 354.02 191.98 353 193 C353.33 193.99 353.66 194.98 354 196 C354.66 196.33 355.32 196.66 356 197 C356.34740923 198.99760305 356.67966043 200.99787771 357 203 C358.65525519 206.21161165 358.65525519 206.21161165 361.5 206.625 C362.325 206.74875 363.15 206.8725 364 207 C364.66 207.33 365.32 207.66 366 208 C366.12375 206.948125 366.2475 205.89625 366.375 204.8125 C366.91784597 201.50113959 367.71355109 199.05531616 369 196 C369.36871088 194.34080104 369.71281674 192.6752357 370 191 C368.56359829 190.80426392 367.12580496 190.61872184 365.6875 190.4375 C364.88699219 190.33308594 364.08648438 190.22867188 363.26171875 190.12109375 C360.83182884 189.85244822 360.83182884 189.85244822 358 191 C357.34 190.67 356.68 190.34 356 190 Z M118 195.4375 C115.32583777 196.56692836 113.97454511 197 111 197 C111 197.99 111 198.98 111 200 C109.68 200 108.36 200 107 200 C106.67 200.99 106.34 201.98 106 203 C106.495 203.99 106.495 203.99 107 205 C105.68 205 104.36 205 103 205 C102.67 204.34 102.34 203.68 102 203 C99.58655745 205.09107522 99.58655745 205.09107522 98.625 208.0625 C98 210 98 210 95.9375 211.0625 C94.4834375 211.5265625 94.4834375 211.5265625 93 212 C91.56033153 212.5358766 90.12290822 213.07781424 88.6875 213.625 C86.8621875 214.305625 86.8621875 214.305625 85 215 C85.33 215.66 85.66 216.32 86 217 C85.01 217 84.02 217 83 217 C82.3503125 218.4540625 82.3503125 218.4540625 81.6875 219.9375 C80 223 80 223 77 224 C75.61423077 225.62332967 74.27358732 227.28724465 73 229 C74.79860887 231.58261786 76.61778958 233.93123832 79 236 C82.54187831 236.33338596 82.54187831 236.33338596 86 236 C86.825 236.515625 87.65 237.03125 88.5 237.5625 C91.9475934 239.5448662 94.21252459 238.81690646 98 238 C98.33 238.99 98.66 239.98 99 241 C99.7425 240.9175 100.485 240.835 101.25 240.75 C104.78157027 241.07105184 105.76630364 242.35265617 108 245 C108.33 244.01 108.66 243.02 109 242 C109.66 242 110.32 242 111 242 C112.57378316 239.71126384 112.57378316 239.71126384 114 237 C114.37125 236.34 114.7425 235.68 115.125 235 C116.49885197 231.85976694 116.90157369 228.61867969 117.4375 225.25 C117.7159375 224.13625 117.7159375 224.13625 118 223 C118.66 222.67 119.32 222.34 120 222 C119.505 221.01 119.505 221.01 119 220 C118.01 220.495 118.01 220.495 117 221 C117.33 220.34 117.66 219.68 118 219 C118.99 219 119.98 219 121 219 C121.04898438 218.36191406 121.09796875 217.72382813 121.1484375 217.06640625 C121.22320313 216.24011719 121.29796875 215.41382813 121.375 214.5625 C121.44460938 213.73878906 121.51421875 212.91507813 121.5859375 212.06640625 C121.79089844 211.04353516 121.79089844 211.04353516 122 210 C122.66 209.67 123.32 209.34 124 209 C124.40729228 206.67843403 124.74438677 204.3431213 125 202 C125.66 202 126.32 202 127 202 C126.22969878 198.51190809 126.22969878 198.51190809 125 195 C121.60423907 193.86807969 121.13211821 194.10279053 118 195.4375 Z M91 210 C91 210.66 91 211.32 91 212 C91.66 211.67 92.32 211.34 93 211 C92.34 210.67 91.68 210.34 91 210 Z M522 231 C521.67 232.32 521.34 233.64 521 235 C521.66 235 522.32 235 523 235 C522.67 233.68 522.34 232.36 522 231 Z M-9 404 C-9 404.66 -9 405.32 -9 406 C-10.32 406.33 -11.64 406.66 -13 407 C-13 407.99 -13 408.98 -13 410 C-13.66 410 -14.32 410 -15 410 C-15.7138986 412.46844245 -15.7138986 412.46844245 -16 415 C-16.66666667 417 -17.33333333 419 -18 421 C-18.52207698 422.97229081 -18.98816412 424.94758397 -19.4375 426.9375 C-20.10438317 429.38273828 -21.04913659 431.65080804 -22 434 C-22.33 434.99 -22.66 435.98 -23 437 C-24 440 -24 440 -25.125 442.6875 C-26.17694605 445.05555895 -26.17694605 445.05555895 -26 448 C-25.34 448 -24.68 448 -24 448 C-23.67 448.66 -23.34 449.32 -23 450 C-22.01 449.34 -21.02 448.68 -20 448 C-19.67 448.33 -19.34 448.66 -19 449 C-18.34 449.33 -17.68 449.66 -17 450 C-16.5875 449.525625 -16.175 449.05125 -15.75 448.5625 C-13.817815 446.83733482 -12.51807725 446.43415125 -10 446 C-9.67 444.68 -9.34 443.36 -9 442 C-7.515 442.495 -7.515 442.495 -6 443 C-6 442.01 -6 441.02 -6 440 C-4.02 440.33 -2.04 440.66 0 441 C0.66 440.01 1.32 439.02 2 438 C3 437 3 437 4.75 436.75 C9.22736541 435.25754486 11.67007215 431.49960503 14.1875 427.6875 C14.785625 426.800625 15.38375 425.91375 16 425 C16.66 425 17.32 425 18 425 C18 424.34 18 423.68 18 423 C18.99 423 19.98 423 21 423 C21.268125 422.195625 21.53625 421.39125 21.8125 420.5625 C22.204375 419.716875 22.59625 418.87125 23 418 C23.99 417.67 24.98 417.34 26 417 C25.34 416.67 24.68 416.34 24 416 C23.505 415.01 23.505 415.01 23 414 C22.34 414.33 21.68 414.66 21 415 C20.505 413.515 20.505 413.515 20 412 C18.02 411.67 16.04 411.34 14 411 C14 410.34 14 409.68 14 409 C13.01 409.33 12.02 409.66 11 410 C10.505 409.505 10.505 409.505 10 409 C7.38850805 408.00943409 6.37371272 407.84428637 3.75 408.9375 C2.88375 409.4634375 2.88375 409.4634375 2 410 C1.67 408.35 1.34 406.7 1 405 C0.01 405.33 -0.98 405.66 -2 406 C-4.35188447 405.40206327 -6.68925595 404.74118205 -9 404 Z M11 432 C12 434 12 434 12 434 Z M234 488 C235 490 235 490 235 490 Z M280 488 C281 490 281 490 281 490 Z M-433 549 C-432.67 549.99 -432.34 550.98 -432 552 C-431.34 551.67 -430.68 551.34 -430 551 C-430.33 550.34 -430.66 549.68 -431 549 C-431.66 549 -432.32 549 -433 549 Z M-431 562 C-431 562.66 -431 563.32 -431 564 C-430.34 563.67 -429.68 563.34 -429 563 C-429.66 562.67 -430.32 562.34 -431 562 Z M-432 565 C-431.01 566.485 -431.01 566.485 -430 568 C-430 567.01 -430 566.02 -430 565 C-430.66 565 -431.32 565 -432 565 Z M-430 615 C-429.01 616.485 -429.01 616.485 -428 618 C-428 617.01 -428 616.02 -428 615 C-428.66 615 -429.32 615 -430 615 Z M-424 625 C-423 627 -423 627 -423 627 Z " fill="#FEFEFE" transform="translate(480,3)"/>
<path d="M0 0 C2.51502993 2.00036147 3.83475482 3.20241343 4.49498463 6.38913536 C4.4914021 7.73098617 4.4914021 7.73098617 4.48774719 9.09994507 C4.49469384 10.1347038 4.50164049 11.16946253 4.50879765 12.23557758 C4.49598475 13.37003913 4.48317186 14.50450068 4.4699707 15.67333984 C4.47213561 16.87863688 4.47430052 18.08393393 4.47653103 19.32575512 C4.47840466 22.66605748 4.46226675 26.00539041 4.43839359 29.34554982 C4.41702406 32.92972554 4.41847878 36.51390027 4.41705322 40.09812927 C4.41056224 47.0887565 4.3824119 54.07913778 4.34687269 61.06967121 C4.3185536 66.75057188 4.29922369 72.43144074 4.28610229 78.11239624 C4.28423391 78.92034356 4.28236552 79.72829088 4.28044051 80.56072146 C4.2766873 82.19931718 4.27294979 83.83791294 4.26922786 85.47650874 C4.22212782 105.51456059 4.12419445 125.55226803 4.0132637 145.59005451 C4.00020589 147.96259012 3.9874036 150.33512696 3.97470093 152.70766449 C3.86022793 174.07611711 3.72482749 195.44435638 3.5625 216.8125 C3.54801504 218.73240376 3.54801504 218.73240376 3.53323746 220.69109344 C3.39755682 238.46126614 3.22597474 256.2307394 3 274 C2.9852639 275.17850273 2.9705278 276.35700546 2.95534515 277.5712204 C2.86508914 284.66640323 2.76261195 291.76125441 2.64414787 298.85602379 C2.60857482 301.04605345 2.57580226 303.2361308 2.54614449 305.42624855 C2.14375598 334.4318642 -2.80030299 359.85486419 -23.40625 381.53125 C-46.44758843 403.37563578 -77.88065638 409.48749718 -108.46112061 409.39440918 C-110.4768855 409.39930852 -112.49264758 409.40550311 -114.50840497 409.41286707 C-120.00155075 409.42915502 -125.49455196 409.42697166 -130.98771334 409.4214921 C-136.92896026 409.41880836 -142.87016982 409.43337805 -148.81140137 409.44558716 C-160.42873514 409.46658017 -172.04602222 409.47120459 -183.66337237 409.46939927 C-193.10181288 409.46802317 -202.54023829 409.47185854 -211.97867584 409.47932434 C-213.33734111 409.48037469 -214.69600639 409.4814223 -216.05467166 409.4824672 C-216.72914071 409.48298655 -217.40360976 409.48350589 -218.09851726 409.48404097 C-218.77424232 409.48456112 -219.44996737 409.48508126 -220.14616895 409.48561716 C-220.82305869 409.48614115 -221.49994844 409.48666514 -222.19735 409.48720502 C-241.21048896 409.50176925 -260.22362239 409.51007871 -279.23676682 409.50545502 C-279.95228854 409.50528306 -280.66781026 409.50511111 -281.40501446 409.50493394 C-285.03117356 409.50404512 -288.65733263 409.5031003 -292.2834917 409.50213593 C-293.36366107 409.50184938 -293.36366107 409.50184938 -294.46565204 409.50155704 C-295.92188654 409.50116995 -297.37812104 409.50077962 -298.83435554 409.50038607 C-321.52795828 409.49440699 -344.22145925 409.50990235 -366.91503906 409.54199219 C-392.43368419 409.57804658 -417.95226481 409.59740593 -443.47093701 409.59245348 C-446.18966245 409.59198351 -448.90838789 409.59157326 -451.62711334 409.59120178 C-452.29649685 409.5910994 -452.96588037 409.59099701 -453.65554823 409.59089152 C-463.76564189 409.58969608 -473.8756658 409.60167065 -483.98574066 409.62034607 C-495.47145585 409.64130825 -506.95701449 409.64500078 -518.442736 409.62604648 C-524.30469982 409.61686099 -530.16637128 409.61583224 -536.02831268 409.63640213 C-541.38937293 409.65500735 -546.74989921 409.65072675 -552.11093846 409.62785631 C-554.05465251 409.62364434 -555.99840668 409.6279569 -557.94207844 409.64145225 C-560.57610772 409.65850211 -563.20824887 409.64500571 -565.84220505 409.62361908 C-566.98478116 409.64203537 -566.98478116 409.64203537 -568.15043962 409.6608237 C-572.09046592 409.59358968 -573.82845165 409.13686539 -576.94736218 406.64852381 C-579.8692096 402.87845663 -580.33668787 399.80946542 -580.29296875 395.0703125 C-579.8172593 391.70863236 -578.12468751 389.56212317 -576 387 C-572.76142498 385.38071249 -569.2090214 385.8558608 -565.65063477 385.8581543 C-564.78709381 385.85467987 -563.92355286 385.85120544 -563.03384399 385.84762573 C-561.15516875 385.84026377 -559.27648478 385.83492074 -557.39779854 385.83133507 C-554.42690547 385.82418385 -551.45617893 385.80852836 -548.4853363 385.78999329 C-540.03736628 385.73745343 -531.5894874 385.68951674 -523.14135742 385.67407227 C-517.97769494 385.66401196 -512.81445078 385.63473852 -507.65095329 385.59275246 C-505.68016658 385.58041071 -503.70932088 385.57532696 -501.73849678 385.57755089 C-498.98479405 385.57989398 -496.23229964 385.55781434 -493.47875977 385.5300293 C-492.66047195 385.53663071 -491.84218414 385.54323212 -490.99909973 385.55003357 C-486.55904226 385.5106609 -486.55904226 385.5106609 -482.99278259 383.10774231 C-481.86053936 380.70391596 -481.62922952 379.08656588 -481.6875 376.4375 C-481.69136719 375.67308594 -481.69523437 374.90867187 -481.69921875 374.12109375 C-481.88631304 371.70211251 -481.88631304 371.70211251 -484 369 C-486.84365568 368.70512936 -489.47175416 368.60422042 -492.31762695 368.63110352 C-493.60811951 368.6254538 -493.60811951 368.6254538 -494.92468262 368.61968994 C-496.79680096 368.61324381 -498.66895201 368.61360026 -500.54107094 368.61987495 C-503.5042632 368.62895522 -506.46681857 368.61879583 -509.42997742 368.60325623 C-517.85589553 368.56307501 -526.28176574 368.56195303 -534.70776367 368.56420898 C-539.85841837 368.56426008 -545.00873118 368.54509397 -550.15929222 368.51487541 C-553.07820454 368.5040365 -555.99646786 368.51619073 -558.9153595 368.52870178 C-560.70830936 368.51979694 -562.50125392 368.50972241 -564.29418945 368.49829102 C-565.10528671 368.50803452 -565.91638397 368.51777802 -566.75205994 368.52781677 C-570.52813597 368.47977921 -572.74740008 368.16121929 -575.96208191 366.10948181 C-579.34004991 362.61289277 -579.88220287 359.91292778 -580.5 355.125 C-580.36785696 350.82370927 -578.69389438 348.58480681 -575.8594265 345.46748734 C-572.5416747 342.84906776 -569.28155763 343.07288771 -565.1965332 343.19287109 C-563.90034561 343.18875465 -563.90034561 343.18875465 -562.57797241 343.18455505 C-560.71021989 343.18330119 -558.84240088 343.19818565 -556.97487831 343.22751999 C-554.01981066 343.27392384 -551.06725767 343.27829455 -548.11186218 343.27212524 C-542.90944612 343.26820172 -537.7080541 343.30161848 -532.50585938 343.347229 C-524.16889738 343.41973125 -515.83247664 343.46084767 -507.4951992 343.45399857 C-504.58134258 343.46086548 -501.66900834 343.49916056 -498.75544739 343.53939819 C-496.9753954 343.5437142 -495.19533973 343.54676398 -493.4152832 343.54833984 C-492.60327957 343.5679628 -491.79127594 343.58758575 -490.95466614 343.60780334 C-488.44600962 343.64721304 -488.44600962 343.64721304 -485 343 C-482.4231313 340.02538045 -482.03836666 338.36448322 -481.625 334.4375 C-482.03574893 330.67230146 -482.22577284 329.51088032 -485 327 C-487.93540641 326.62090024 -490.49654299 326.49717052 -493.43115234 326.54931641 C-494.29162674 326.54861649 -495.15210114 326.54791656 -496.03865051 326.54719543 C-497.9080573 326.54791312 -499.7774772 326.55764539 -501.64680099 326.57527542 C-504.60597348 326.6017417 -507.56407618 326.60186638 -510.52334595 326.59457397 C-518.93663259 326.57889357 -527.34954938 326.6132868 -535.76269531 326.66015625 C-540.90807965 326.68699804 -546.05282321 326.6848736 -551.19823074 326.66569138 C-553.15905132 326.66460876 -555.11991357 326.67507967 -557.08060837 326.69731522 C-559.82448184 326.72832773 -562.56609376 326.72282618 -565.31005859 326.70947266 C-566.52434792 326.7372303 -566.52434792 326.7372303 -567.76316833 326.76554871 C-573.15616297 326.68744907 -573.15616297 326.68744907 -575.61159134 324.6870842 C-579.15444513 320.5298829 -580.3365501 317.55087683 -580.296875 312.10546875 C-579.773394 308.3928864 -577.60633651 305.60633651 -575 303 C-573.09858523 302.90001729 -571.19340181 302.87152297 -569.289361 302.86971474 C-568.04096473 302.86609039 -566.79256846 302.86246604 -565.50634199 302.85873187 C-564.10286583 302.8597287 -562.69938973 302.86081084 -561.2959137 302.86196899 C-559.81882541 302.85955316 -558.34173779 302.85669159 -556.86465114 302.85341966 C-552.78568998 302.84563424 -548.70674561 302.84404552 -544.62777793 302.84336853 C-540.23544859 302.84153432 -535.8431292 302.83393014 -531.45080566 302.82688904 C-523.83011054 302.81534192 -516.20941764 302.80710839 -508.58871651 302.80076981 C-496.53210616 302.79045249 -484.47552347 302.76988834 -472.41893005 302.74765015 C-468.29444608 302.74016933 -464.169962 302.73275565 -460.04547787 302.72536278 C-459.01450328 302.72351221 -457.98352869 302.72166165 -456.92131244 302.719755 C-445.17337441 302.69880902 -433.4254333 302.67999302 -421.67749023 302.66210938 C-420.60316539 302.66047119 -419.52884055 302.65883301 -418.42196041 302.65714519 C-401.04893228 302.63091386 -383.67590203 302.61224296 -366.30286253 302.59551747 C-348.4598233 302.57806257 -330.6168255 302.54917591 -312.77381939 302.5106281 C-301.77442829 302.48728872 -290.77510481 302.47323898 -279.77568876 302.47130047 C-272.22249913 302.46918201 -264.66937648 302.45617726 -257.11621697 302.43482114 C-252.76569352 302.42285883 -248.41530296 302.41559573 -244.06476402 302.42153358 C-219.86545972 302.60856166 -219.86545972 302.60856166 -196 299 C-194.76505075 298.71009501 -193.53010149 298.42019001 -192.25772953 298.12150002 C-178.38609912 294.6767238 -164.56717175 288.38956207 -153 280 C-152.48050781 279.62568848 -151.96101563 279.25137695 -151.42578125 278.86572266 C-137.10649843 268.43083736 -124.76314725 255.93317254 -114.25 241.68994141 C-113.04848987 240.06555603 -111.82159585 238.46004003 -110.59375 236.85546875 C-89.30389601 208.58021997 -74.60806554 174.92089319 -61.82763672 142.11181641 C-60.84529951 139.60526276 -59.84623413 137.10559583 -58.84765625 134.60546875 C-54.68243765 124.13079625 -50.7377142 113.6431785 -47.2890625 102.91015625 C-46.21498864 99.58481698 -45.00555869 96.32582624 -43.76318359 93.06030273 C-42.40990246 89.40696318 -41.21288352 85.70182157 -40 82 C-38.35575261 76.98161996 -36.65268342 72.00458162 -34.77685547 67.06787109 C-33.3127472 63.17063757 -31.94001246 59.24100352 -30.5625 55.3125 C-30.09855835 53.99258057 -30.09855835 53.99258057 -29.62524414 52.64599609 C-27.94664293 47.83450542 -26.36956643 43.01689079 -24.9375 38.125 C-23.22288319 32.41204272 -20.99602542 27.0217587 -18.57421875 21.57421875 C-17.48701639 19.10575682 -16.44889994 16.64974059 -15.45703125 14.14453125 C-15.20228027 13.51345459 -14.9475293 12.88237793 -14.68505859 12.23217773 C-13.97902069 10.47815084 -13.28407983 8.7196689 -12.58984375 6.9609375 C-9.69264814 1.56517761 -6.18629952 -1.05298715 0 0 Z " fill="#0155D4" transform="translate(667,196)"/>
<path d="M0 0 C2.01407889 -0.00490144 4.02815497 -0.01109697 6.04222637 -0.01845789 C11.5213827 -0.0347188 17.00039385 -0.03256815 22.47956574 -0.02708292 C28.40916998 -0.02439584 34.33873696 -0.03897489 40.26832581 -0.05117798 C51.85831271 -0.07215569 63.4482528 -0.07679635 75.0382561 -0.07499009 C84.45377408 -0.0736134 93.86927693 -0.07745222 103.28479195 -0.08491516 C104.64067174 -0.08596551 105.99655154 -0.08701313 107.35243135 -0.08805802 C108.36206967 -0.08883704 108.36206967 -0.08883704 109.39210474 -0.08963179 C110.06645435 -0.09015194 110.74080397 -0.09067208 111.43558842 -0.09120798 C112.11110659 -0.09173197 112.78662477 -0.09225597 113.48261319 -0.09279584 C132.45217396 -0.10735621 151.42172919 -0.11567113 170.39129543 -0.11104584 C171.46174351 -0.11078791 171.46174351 -0.11078791 172.5538168 -0.11052476 C176.17032565 -0.10963595 179.78683448 -0.10869113 183.40334331 -0.10772675 C184.1215298 -0.10753572 184.8397163 -0.10734469 185.57966601 -0.10714786 C187.03200302 -0.10676077 188.48434003 -0.10637044 189.93667704 -0.10597689 C212.57689068 -0.09999588 235.21700234 -0.11550327 257.85719299 -0.14758301 C283.31980924 -0.18363179 308.78236086 -0.20299773 334.24500424 -0.1980443 C336.95722106 -0.19757433 339.6694379 -0.19716408 342.38165474 -0.1967926 C343.38331692 -0.19663902 343.38331692 -0.19663902 344.40521469 -0.19648234 C354.49264012 -0.19528671 364.57999567 -0.2072637 374.66740227 -0.22593689 C386.12455141 -0.24689164 397.58154362 -0.25059886 409.03869908 -0.2316373 C414.8863763 -0.22244794 420.73376039 -0.22143485 426.58141518 -0.24199295 C431.92815734 -0.26058334 437.27436381 -0.25633463 442.62108482 -0.23344713 C444.56068363 -0.22923141 446.50032258 -0.23355999 448.43987911 -0.24704307 C451.06593168 -0.26406351 453.6900836 -0.25062148 456.31606197 -0.2292099 C457.07823036 -0.24148743 457.84039874 -0.25376495 458.62566313 -0.26641452 C462.4574285 -0.20063584 463.99718669 0.06531315 466.76795155 2.80838537 C469.35389201 7.09057946 469.85688759 10.41760259 469.3296051 15.39440918 C467.76525222 19.41703088 466.94236847 20.98590027 463.3296051 23.39440918 C460.47650232 23.58737684 457.72003288 23.66418804 454.86671448 23.64978027 C454.0030275 23.65340073 453.13934052 23.65702118 452.2494812 23.66075134 C450.37355608 23.66764671 448.49761089 23.67015052 446.62167358 23.66880417 C443.65483467 23.66784067 440.68835977 23.68075932 437.72157288 23.69778442 C429.28642077 23.74411732 420.85130582 23.76867561 412.41603088 23.77526855 C407.25772419 23.78027292 402.09979791 23.80446643 396.94161987 23.84059525 C394.97361532 23.85041703 393.00555858 23.85271229 391.03753662 23.84742355 C388.28877359 23.84038212 385.54115088 23.85757366 382.79249573 23.88024902 C381.97577896 23.87207657 381.15906219 23.86390411 380.31759644 23.85548401 C375.91155882 23.89488019 375.91155882 23.89488019 372.32020569 26.21170044 C370.48371941 30.25825028 370.8150239 34.02022107 372.34913635 38.11706543 C372.67269104 38.86858887 372.99624573 39.6201123 373.3296051 40.39440918 C374.4460289 40.3958342 375.5624527 40.39725922 376.71270752 40.39872742 C387.23339322 40.41539609 397.75369206 40.4581658 408.27417278 40.52649975 C413.68292475 40.56079223 419.09139357 40.58588327 424.5002594 40.58996582 C429.72006511 40.59424387 434.93923187 40.62266601 440.15883827 40.66784096 C442.15029491 40.68083168 444.14182796 40.68511808 446.13332176 40.68056297 C448.923003 40.6756682 451.71080869 40.701699 454.5002594 40.73498535 C455.32384949 40.72635971 456.14743958 40.71773407 456.99598694 40.70884705 C461.24539227 40.79386035 462.86452704 41.02822036 466.31893921 43.74812317 C469.56696072 48.02292283 469.91336854 52.16102115 469.3296051 57.39440918 C468.0171051 60.20690918 468.0171051 60.20690918 466.3296051 62.39440918 C465.97434753 62.92691788 465.61908997 63.45942657 465.25306702 64.0080719 C462.11499852 66.2698382 458.59283919 65.79852345 454.86671448 65.76330566 C453.57118401 65.76895538 453.57118401 65.76895538 452.2494812 65.77471924 C450.37355637 65.78115699 448.49759894 65.78081673 446.62167358 65.77453423 C443.65475063 65.76544594 440.68846258 65.77562131 437.72157288 65.79115295 C429.28640254 65.83132036 420.8512809 65.83245144 412.41603088 65.8302002 C407.25774841 65.83014919 402.09980855 65.84926655 396.94161987 65.87953377 C394.01485939 65.89039529 391.08874272 65.87820752 388.16200256 65.8657074 C386.37216038 65.87460833 384.58232351 65.8846815 382.79249573 65.89611816 C381.97577896 65.88637466 381.15906219 65.87663116 380.31759644 65.86659241 C375.87874057 65.8858165 375.87874057 65.8858165 372.32557678 68.30055237 C371.26973084 70.52028437 370.92593156 71.94760058 370.9546051 74.39440918 C370.94687073 75.05440918 370.93913635 75.71440918 370.9311676 76.39440918 C371.49748857 79.23711833 372.20651228 80.37511984 374.3296051 82.39440918 C377.26438141 82.77875648 379.82597416 82.90744371 382.76075745 82.86096191 C384.05146904 82.86442123 384.05146904 82.86442123 385.36825562 82.86795044 C387.23764716 82.87058193 389.10706835 82.86412291 390.9764061 82.84969902 C393.93557932 82.82785502 396.89372781 82.83151559 399.85295105 82.84217834 C407.20342808 82.86387509 414.55367944 82.84647911 421.90412903 82.82067871 C428.11225354 82.79928573 434.31972244 82.79732163 440.52783585 82.82359505 C443.44251634 82.82794985 446.35606245 82.80329282 449.27061462 82.77806091 C451.06030281 82.78333215 452.8499875 82.79005493 454.6396637 82.79846191 C455.85395302 82.77609718 455.85395302 82.77609718 457.09277344 82.75328064 C461.35717949 82.80723478 462.86878091 83.02145954 466.31022644 85.80665588 C469.798832 90.27716491 469.88632672 93.84639026 469.3296051 99.39440918 C467.93980012 102.363538 466.63303482 104.09097946 464.3296051 106.39440918 C461.78372556 106.64691687 461.78372556 106.64691687 458.48753834 106.65053558 C457.23530092 106.65676768 455.9830635 106.66299977 454.6928795 106.66942072 C453.29027823 106.66626152 451.88767736 106.66292271 450.4850769 106.65942383 C449.00498594 106.66299155 447.52489687 106.66744086 446.04481095 106.67270041 C441.96229855 106.68467131 437.87986605 106.68417628 433.79734027 106.68176532 C429.3996241 106.6813472 425.00193595 106.69243149 420.60423279 106.70222473 C412.97645238 106.71770921 405.34869052 106.72609592 397.72089577 106.72993469 C386.67594923 106.73567691 375.63105256 106.75425686 364.58612802 106.77637523 C346.64638049 106.81213439 328.70663013 106.84042671 310.76686096 106.8626709 C309.69231469 106.86400589 308.61776842 106.86534088 307.51066013 106.86671633 C299.88780869 106.87613899 292.26495693 106.88529927 284.6421051 106.89440918 C275.95712765 106.90479661 267.27215038 106.91531773 258.58717346 106.92614746 C257.51787455 106.9274782 256.44857564 106.92880895 255.34687374 106.93018001 C237.49139781 106.95264248 219.63594295 106.98285812 201.78048867 107.01853991 C190.77105185 107.04016461 179.76164785 107.05481431 168.75219097 107.06037867 C161.19671273 107.06463955 153.64126567 107.07591324 146.08580474 107.09260261 C141.73161878 107.10196936 137.37749108 107.10813627 133.02329445 107.10553932 C129.02747738 107.10320737 125.03178216 107.11016268 121.03598978 107.12411815 C119.5997263 107.12754557 118.16344998 107.12770786 116.72718707 107.12404555 C85.24926469 107.05169507 56.23311433 116.579105 32.3296051 137.39440918 C31.49944885 138.11499512 30.6692926 138.83558105 29.8139801 139.57800293 C27.28528238 141.81582285 24.80142334 144.0940235 22.3296051 146.39440918 C21.61288635 147.04538574 20.8961676 147.6963623 20.1577301 148.36706543 C-18.08563311 184.58660102 -41.22393782 241.69333042 -57.9828949 290.70690918 C-58.26866394 291.53190918 -58.55443298 292.35690918 -58.84886169 293.20690918 C-59.79300834 295.93483568 -60.73200273 298.66449822 -61.6703949 301.39440918 C-63.10611778 305.56169038 -64.54413473 309.72817574 -65.9828949 313.89440918 C-66.35615906 314.97754395 -66.72942322 316.06067871 -67.11399841 317.17663574 C-70.39657206 326.67366922 -73.81058033 336.12141122 -77.22703552 345.57092285 C-79.37870979 351.57823964 -81.34185004 357.54207148 -82.9828949 363.70690918 C-85.38625383 372.28411408 -88.81224846 380.43455212 -92.2328949 388.64440918 C-92.51879486 389.3369278 -92.80469482 390.02944641 -93.09925842 390.74295044 C-93.92705114 392.74039674 -94.76708428 394.73219414 -95.61180115 396.72253418 C-96.10365906 397.88687988 -96.59551697 399.05122559 -97.10227966 400.25085449 C-98.96195857 403.97889834 -100.84983307 407.48412826 -104.6703949 409.39440918 C-107.5453949 409.76940918 -107.5453949 409.76940918 -110.6703949 409.39440918 C-113.19433117 407.2460121 -114.49916907 405.47038659 -115.02647746 402.15679824 C-115.16330824 399.27516889 -115.16151123 396.41993059 -115.12017822 393.53526306 C-115.12021794 392.42680828 -115.12025765 391.31835349 -115.12029856 390.17630917 C-115.11550855 386.45238139 -115.08194691 382.72926641 -115.04856873 379.00549316 C-115.03921533 376.33725387 -115.03144906 373.66905361 -115.02565002 371.00080872 C-115.00786324 364.49011517 -114.96874479 357.97971396 -114.922734 351.46916556 C-114.8697984 343.84825758 -114.83903725 336.22730747 -114.8093706 328.60627926 C-114.75557986 314.95734501 -114.68323462 301.30857294 -114.59983826 287.65979004 C-114.51952679 274.51106544 -114.44954312 261.36234909 -114.39280701 248.21350098 C-114.38933452 247.40930756 -114.38586203 246.60511415 -114.38228432 245.77655124 C-114.36833893 242.54080754 -114.35442267 239.30506372 -114.3405559 236.06931969 C-114.27960653 221.91233115 -114.20971809 207.75538447 -114.13874123 193.59844318 C-114.12749301 191.34142026 -114.11644344 189.08439645 -114.10544419 186.82737231 C-114.00685685 166.68257727 -113.87862576 146.53842899 -113.6703949 126.39440918 C-113.6589241 125.2531629 -113.6474533 124.11191663 -113.6356349 122.93608713 C-113.56998221 116.63094371 -113.48734484 110.32646716 -113.37649858 104.02194989 C-113.34578546 102.19166303 -113.31940546 100.36129668 -113.29802668 98.53087699 C-112.98389517 72.92904544 -106.57872648 47.6746001 -88.20506287 28.89685059 C-77.33058484 18.42395678 -64.56133989 11.42423384 -50.3578949 6.51940918 C-49.57801208 6.24516113 -48.79812927 5.97091309 -47.99461365 5.68835449 C-32.40010486 0.65887549 -16.24350502 -0.04969486 0 0 Z " fill="#0155D4" transform="translate(504.67039489746094,44.6055908203125)"/>
<path d="M0 0 C21.12 0 42.24 0 64 0 C76.87272727 36.60681818 76.87272727 36.60681818 80.9375 48.375 C84.81333113 59.5805407 88.84653339 70.72940078 92.86383057 81.88476562 C96.57530796 92.19423392 100.25092796 102.51260172 103.8125 112.875 C106.82057369 121.62397707 109.87982285 130.35280684 113 139.0625 C113.38647705 140.14708496 113.7729541 141.23166992 114.17114258 142.34912109 C114.705177 143.833396 114.705177 143.833396 115.25 145.34765625 C115.56453125 146.22429932 115.8790625 147.10094238 116.203125 148.00415039 C116.83413087 149.96563118 116.83413087 149.96563118 118 151 C118.25168945 150.26475098 118.50337891 149.52950195 118.76269531 148.77197266 C119.92250789 145.38874303 121.08622824 142.00686967 122.25 138.625 C122.64574219 137.46871094 123.04148437 136.31242188 123.44921875 135.12109375 C125.50809709 129.14697135 127.67093122 123.25392568 130.05761719 117.40380859 C131.71980867 113.16392845 133.09876689 108.83166582 134.5 104.5 C136.47016006 98.40959652 138.59280662 92.45009274 141.00927734 86.52246094 C142.70679168 82.20045055 144.12653401 77.78938533 145.5625 73.375 C147.34522009 67.92011371 149.15767699 62.49757143 151.20288086 57.13525391 C152.88803503 52.62120846 154.42863073 48.05460793 156 43.5 C159.82311546 32.41871422 159.82311546 32.41871422 161.4921875 28.02734375 C163.89399897 21.70105685 166.02704798 15.27568218 168.21484375 8.87304688 C168.73111328 7.37547852 168.73111328 7.37547852 169.2578125 5.84765625 C169.72405029 4.4865271 169.72405029 4.4865271 170.19970703 3.09790039 C171 1 171 1 172 0 C173.96369153 -0.0940067 175.93079199 -0.11743381 177.89672852 -0.11352539 C179.15796036 -0.11344986 180.4191922 -0.11337433 181.71864319 -0.11329651 C183.10539794 -0.1081891 184.49215229 -0.10297309 185.87890625 -0.09765625 C187.28995209 -0.09579201 188.70099857 -0.09436814 190.11204529 -0.09336853 C193.83240535 -0.08954379 197.5527266 -0.0797139 201.27307129 -0.06866455 C205.06680781 -0.05844948 208.86055058 -0.05387071 212.65429688 -0.04882812 C220.10288231 -0.03809158 227.55143572 -0.0210157 235 0 C238.22754919 58.68872869 238.22754919 58.68872869 238.70874023 79.19335938 C238.84025009 84.67120458 239.05909881 90.11694688 239.4609375 95.58203125 C240.40417279 108.98045577 240.68109245 122.41990656 241.125 135.84204102 C241.68278062 153.39853449 241.68278062 153.39853449 242.78564453 170.92602539 C243.2095099 177.00448646 243.29210379 183.09722105 243.4375 189.1875 C243.79244754 202.89846833 244.472512 216.57472998 245.33959961 230.26245117 C245.38305511 230.96561966 245.42651062 231.66878815 245.47128296 232.39326477 C245.58855578 234.28303934 245.71023056 236.17253933 245.83227539 238.06201172 C246.04417348 243.03714453 246 248.02035671 246 253 C226.2 253 206.4 253 186 253 C185.67 221.98 185.34 190.96 185 159 C173.14518299 184.8362166 173.14518299 184.8362166 161.52420044 210.77401733 C159.90813778 214.43762289 158.28371146 218.09752268 156.66015625 221.7578125 C156.34608322 222.46618759 156.03201019 223.17456268 155.7084198 223.90440369 C152.85167972 230.3435582 149.96944272 236.77082455 147.0625 243.1875 C146.65531738 244.09024658 146.24813477 244.99299316 145.82861328 245.9230957 C145.28116455 247.12712036 145.28116455 247.12712036 144.72265625 248.35546875 C144.41078369 249.04278076 144.09891113 249.73009277 143.77758789 250.43823242 C143 252 143 252 142 253 C140.4651703 253.09319449 138.92607918 253.117458 137.38842773 253.11352539 C136.40748642 253.11344986 135.4265451 253.11337433 134.4158783 253.11329651 C133.3492244 253.10813522 132.2825705 253.10297394 131.18359375 253.09765625 C129.55430687 253.09553383 129.55430687 253.09553383 127.8921051 253.09336853 C124.40720925 253.08775048 120.92237658 253.07519492 117.4375 253.0625 C115.08138113 253.05748733 112.72526126 253.05292402 110.36914062 253.04882812 C104.57940536 253.03777519 98.78970719 253.02101951 93 253 C83.09403201 231.58149074 73.32312105 210.11063018 63.78125 188.52734375 C59.55742462 179.00191937 55.27596076 169.50213502 51 160 C50.67 190.69 50.34 221.38 50 253 C30.2 253 10.4 253 -10 253 C-10 221.97138182 -10 221.97138182 -9.4140625 210.1484375 C-9.35179925 208.79854203 -9.29008067 207.44862135 -9.22885132 206.09867859 C-9.06780125 202.58063201 -8.8993144 199.06298288 -8.72912598 195.54536819 C-8.55027698 191.81749744 -8.3791937 188.08926841 -8.20703125 184.36108398 C-7.648036 172.30600863 -7.06929605 160.25191038 -6.4609375 148.19921875 C-6.42171173 147.42145584 -6.38248596 146.64369293 -6.34207153 145.84236145 C-6.30379242 145.08380356 -6.26551331 144.32524567 -6.22607422 143.54370117 C-6.18867126 142.80203705 -6.15126831 142.06037292 -6.11273193 141.29623413 C-6.03731798 139.80193952 -5.96167351 138.30765652 -5.88580322 136.81338501 C-4.84802383 116.22930147 -4.10327818 95.63193989 -3.30526733 75.0375061 C-2.33538269 50.0172536 -1.25041664 25.00833288 0 0 Z " fill="#010101" transform="translate(724,199)"/>
<path d="M0 0 C24.75 0 49.5 0 75 0 C75 32.34 75 64.68 75 98 C101.73 98 128.46 98 156 98 C156 65.66 156 33.32 156 0 C180.09 0 204.18 0 229 0 C229 83.82 229 167.64 229 254 C205.24 254 181.48 254 157 254 C157 224.3 157 194.6 157 164 C130.27 164 103.54 164 76 164 C76.32664838 183.8463544 76.32664838 183.8463544 76.65820312 203.69262695 C76.69939078 206.24950895 76.74041611 208.80639358 76.78125 211.36328125 C76.8028418 212.60702515 76.82443359 213.85076904 76.84667969 215.13220215 C77.05490899 228.42541182 77 241.69881139 77 255 C51.59 255 26.18 255 0 255 C0 170.85 0 86.7 0 0 Z " fill="#010101" transform="translate(120,197)"/>
<path d="M0 0 C0.88623047 -0.01611328 1.77246094 -0.03222656 2.68554688 -0.04882812 C15.77838375 -0.05837797 27.52995999 5.13821609 37.0625 14.125 C47.83385734 25.72320428 52.25847099 39.60544879 51.9609375 55.17578125 C51.39567141 67.39056574 44.67926302 80.49749367 35.6875 88.7265625 C21.51626841 99.9639063 8.45554068 102.89817375 -9.3125 101.3125 C-22.55443137 99.16805767 -34.11936167 90.88416247 -41.9296875 80.07421875 C-50.30486358 67.01144411 -52.51459586 52.98751709 -49.65234375 37.8125 C-44.91430605 22.06006296 -34.67628225 11.82500696 -20.77734375 3.9765625 C-13.77329345 0.61272324 -7.63619136 -0.02740916 0 0 Z " fill="#FF2B2B" transform="translate(529.3125,275.6875)"/>
<path d="M0 0 C0.66 0 1.32 0 2 0 C2 0.66 2 1.32 2 2 C1.34 2 0.68 2 0 2 C0 1.34 0 0.68 0 0 Z " fill="#FFFFFF" transform="translate(235,181)"/>
<path d="M0 0 C0.66 0.33 1.32 0.66 2 1 C1.01 1 0.02 1 -1 1 C-0.67 0.67 -0.34 0.34 0 0 Z " fill="#FFFFFF" transform="translate(233,180)"/>
<path d="M0 0 C0.66 0.33 1.32 0.66 2 1 C1.01 1 0.02 1 -1 1 C-0.67 0.67 -0.34 0.34 0 0 Z " fill="#FFFFFF" transform="translate(86,166)"/>
<path d="M0 0 C0.99 0.495 0.99 0.495 2 1 C1.01 1.495 1.01 1.495 0 2 C0 1.34 0 0.68 0 0 Z " fill="#FFFFFF" transform="translate(593,644)"/>
<path d="M0 0 C0.66 0.66 1.32 1.32 2 2 C1.34 2 0.68 2 0 2 C0 1.34 0 0.68 0 0 Z " fill="#FFFFFF" transform="translate(670,616)"/>
<path d="M0 0 C0.33 0.66 0.66 1.32 1 2 C0.34 1.67 -0.32 1.34 -1 1 C-0.67 0.67 -0.34 0.34 0 0 Z " fill="#FFFFFF" transform="translate(736,493)"/>
<path d="M0 0 C3 1 3 1 3 1 Z " fill="#FFFFFF" transform="translate(471,409)"/>
<path d="M0 0 C0.66 0 1.32 0 2 0 C1.67 0.66 1.34 1.32 1 2 C0.67 1.34 0.34 0.68 0 0 Z " fill="#FFFFFF" transform="translate(1005,303)"/>
<path d="M0 0 C0.99 0.495 0.99 0.495 2 1 C1.01 1.495 1.01 1.495 0 2 C0 1.34 0 0.68 0 0 Z " fill="#FFFFFF" transform="translate(572,239)"/>
<path d="M0 0 C0.33 0.66 0.66 1.32 1 2 C0.34 1.67 -0.32 1.34 -1 1 C-0.67 0.67 -0.34 0.34 0 0 Z " fill="#FFFFFF" transform="translate(563,223)"/>
<path d="M0 0 C0.99 0.495 0.99 0.495 2 1 C1.01 1.495 1.01 1.495 0 2 C0 1.34 0 0.68 0 0 Z " fill="#FFFFFF" transform="translate(228,167)"/>
<path d="M0 0 C3 1 3 1 3 1 Z " fill="#FFFFFF" transform="translate(411,17)"/>
<path d="M0 0 C2 1 2 1 2 1 Z " fill="#FFFFFF" transform="translate(537,646)"/>
<path d="" fill="#FFFFFF" transform="translate(0,0)"/>
<path d="M0 0 C2 1 2 1 2 1 Z " fill="#FFFFFF" transform="translate(83,646)"/>
<path d="M0 0 C2 1 2 1 2 1 Z " fill="#FFFFFF" transform="translate(54,633)"/>
<path d="M0 0 C2 1 2 1 2 1 Z " fill="#FFFFFF" transform="translate(648,630)"/>
<path d="" fill="#FFFFFF" transform="translate(0,0)"/>
<path d="" fill="#FFFFFF" transform="translate(0,0)"/>
<path d="M0 0 C2 1 2 1 2 1 Z " fill="#FFFFFF" transform="translate(690,597)"/>
<path d="M0 0 C2 1 2 1 2 1 Z " fill="#FFFFFF" transform="translate(45,583)"/>
<path d="" fill="#FFFFFF" transform="translate(0,0)"/>
<path d="" fill="#FFFFFF" transform="translate(0,0)"/>
<path d="M0 0 C2 1 2 1 2 1 Z " fill="#FFFFFF" transform="translate(819,494)"/>
<path d="" fill="#FFFFFF" transform="translate(0,0)"/>
<path d="M0 0 C2 1 2 1 2 1 Z " fill="#FFFFFF" transform="translate(895,491)"/>
<path d="M0 0 C2 1 2 1 2 1 Z " fill="#FFFFFF" transform="translate(875,491)"/>
<path d="M0 0 C2 1 2 1 2 1 Z " fill="#FFFFFF" transform="translate(464,448)"/>
<path d="M0 0 C2 1 2 1 2 1 Z " fill="#FFFFFF" transform="translate(486,436)"/>
<path d="" fill="#FFFFFF" transform="translate(0,0)"/>
<path d="M0 0 C2 1 2 1 2 1 Z " fill="#FFFFFF" transform="translate(498,424)"/>
<path d="M0 0 C2 1 2 1 2 1 Z " fill="#FFFFFF" transform="translate(464,421)"/>
<path d="" fill="#FFFFFF" transform="translate(0,0)"/>
<path d="" fill="#FFFFFF" transform="translate(0,0)"/>
<path d="" fill="#FFFFFF" transform="translate(0,0)"/>
<path d="" fill="#FFFFFF" transform="translate(0,0)"/>
<path d="" fill="#FFFFFF" transform="translate(0,0)"/>
<path d="" fill="#FFFFFF" transform="translate(0,0)"/>
<path d="M0 0 C2 1 2 1 2 1 Z " fill="#FFFFFF" transform="translate(237,175)"/>
<path d="M0 0 C2 1 2 1 2 1 Z " fill="#FFFFFF" transform="translate(267,155)"/>
<path d="M0 0 C2 1 2 1 2 1 Z " fill="#FFFFFF" transform="translate(205,155)"/>
<path d="" fill="#FFFFFF" transform="translate(0,0)"/>
<path d="M0 0 C2 1 2 1 2 1 Z " fill="#FFFFFF" transform="translate(1013,147)"/>
<path d="" fill="#FFFFFF" transform="translate(0,0)"/>
<path d="" fill="#FFFFFF" transform="translate(0,0)"/>
<path d="" fill="#FFFFFF" transform="translate(0,0)"/>
<path d="M0 0 C2 1 2 1 2 1 Z " fill="#FFFFFF" transform="translate(1010,42)"/>
<path d="" fill="#FFFFFF" transform="translate(0,0)"/>
<path d="M0 0 C2 1 2 1 2 1 Z " fill="#FFFFFF" transform="translate(978,3)"/>
<path d="M0 0 C2 1 2 1 2 1 Z " fill="#FFFFFF" transform="translate(477,3)"/>
<path d="" fill="#FFFFFF" transform="translate(0,0)"/>
<path d="" fill="#FFFFFF" transform="translate(0,0)"/>
<path d="" fill="#FFFFFF" transform="translate(0,0)"/>
<path d="" fill="#FFFFFF" transform="translate(0,0)"/>
<path d="" fill="#FFFFFF" transform="translate(0,0)"/>
<path d="" fill="#FFFFFF" transform="translate(0,0)"/>
<path d="" fill="#FFFFFF" transform="translate(0,0)"/>
<path d="" fill="#FFFFFF" transform="translate(0,0)"/>
<path d="" fill="#FFFFFF" transform="translate(0,0)"/>
<path d="" fill="#FFFFFF" transform="translate(0,0)"/>
<path d="" fill="#FFFFFF" transform="translate(0,0)"/>
<path d="" fill="#FFFFFF" transform="translate(0,0)"/>
<path d="" fill="#FFFFFF" transform="translate(0,0)"/>
<path d="" fill="#FFFFFF" transform="translate(0,0)"/>
<path d="" fill="#FFFFFF" transform="translate(0,0)"/>
<path d="" fill="#FFFFFF" transform="translate(0,0)"/>
<path d="" fill="#FFFFFF" transform="translate(0,0)"/>
<path d="" fill="#FFFFFF" transform="translate(0,0)"/>
<path d="" fill="#FFFFFF" transform="translate(0,0)"/>
<path d="" fill="#FFFFFF" transform="translate(0,0)"/>
<path d="" fill="#FFFFFF" transform="translate(0,0)"/>
<path d="" fill="#FFFFFF" transform="translate(0,0)"/>
<path d="" fill="#FFFFFF" transform="translate(0,0)"/>
<path d="" fill="#FFFFFF" transform="translate(0,0)"/>
<path d="" fill="#FFFFFF" transform="translate(0,0)"/>
<path d="" fill="#FFFFFF" transform="translate(0,0)"/>
<path d="" fill="#FFFFFF" transform="translate(0,0)"/>
<path d="" fill="#FFFFFF" transform="translate(0,0)"/>
<path d="" fill="#FFFFFF" transform="translate(0,0)"/>
<path d="" fill="#FFFFFF" transform="translate(0,0)"/>
<path d="" fill="#FFFFFF" transform="translate(0,0)"/>
<path d="" fill="#FFFFFF" transform="translate(0,0)"/>
<path d="" fill="#FFFFFF" transform="translate(0,0)"/>
<path d="" fill="#FFFFFF" transform="translate(0,0)"/>
<path d="" fill="#FFFFFF" transform="translate(0,0)"/>
<path d="" fill="#FFFFFF" transform="translate(0,0)"/>
<path d="" fill="#FFFFFF" transform="translate(0,0)"/>
<path d="" fill="#FFFFFF" transform="translate(0,0)"/>
<path d="" fill="#FFFFFF" transform="translate(0,0)"/>
<path d="" fill="#FFFFFF" transform="translate(0,0)"/>
<path d="" fill="#FFFFFF" transform="translate(0,0)"/>
<path d="" fill="#FFFFFF" transform="translate(0,0)"/>
<path d="" fill="#FFFFFF" transform="translate(0,0)"/>
<path d="" fill="#FFFFFF" transform="translate(0,0)"/>
<path d="" fill="#FFFFFF" transform="translate(0,0)"/>
<path d="" fill="#FFFFFF" transform="translate(0,0)"/>
<path d="" fill="#FFFFFF" transform="translate(0,0)"/>
<path d="" fill="#FFFFFF" transform="translate(0,0)"/>
<path d="" fill="#FFFFFF" transform="translate(0,0)"/>
<path d="" fill="#FFFFFF" transform="translate(0,0)"/>
<path d="" fill="#FFFFFF" transform="translate(0,0)"/>
<path d="" fill="#FFFFFF" transform="translate(0,0)"/>
<path d="" fill="#FFFFFF" transform="translate(0,0)"/>
<path d="" fill="#FFFFFF" transform="translate(0,0)"/>
<path d="" fill="#FFFFFF" transform="translate(0,0)"/>
<path d="" fill="#FFFFFF" transform="translate(0,0)"/>
<path d="" fill="#FFFFFF" transform="translate(0,0)"/>
<path d="" fill="#FFFFFF" transform="translate(0,0)"/>
<path d="" fill="#FFFFFF" transform="translate(0,0)"/>
<path d="" fill="#FFFFFF" transform="translate(0,0)"/>
<path d="" fill="#FFFFFF" transform="translate(0,0)"/>
<path d="" fill="#FFFFFF" transform="translate(0,0)"/>
<path d="" fill="#FFFFFF" transform="translate(0,0)"/>
<path d="" fill="#FFFFFF" transform="translate(0,0)"/>
<path d="" fill="#0050CF" transform="translate(0,0)"/>
<path d="" fill="#FFFFFF" transform="translate(0,0)"/>
<path d="" fill="#FFFFFF" transform="translate(0,0)"/>
<path d="" fill="#FFFFFF" transform="translate(0,0)"/>
<path d="" fill="#FFFFFF" transform="translate(0,0)"/>
<path d="" fill="#FFFFFF" transform="translate(0,0)"/>
<path d="" fill="#FFFFFF" transform="translate(0,0)"/>
<path d="" fill="#FFFFFF" transform="translate(0,0)"/>
<path d="" fill="#FFFFFF" transform="translate(0,0)"/>
<path d="" fill="#FFFFFF" transform="translate(0,0)"/>
<path d="" fill="#FFFFFF" transform="translate(0,0)"/>
<path d="" fill="#FFFFFF" transform="translate(0,0)"/>
<path d="" fill="#FFFFFF" transform="translate(0,0)"/>
<path d="" fill="#FFFFFF" transform="translate(0,0)"/>
<path d="" fill="#FFFFFF" transform="translate(0,0)"/>
<path d="" fill="#FFFFFF" transform="translate(0,0)"/>
<path d="" fill="#FFFFFF" transform="translate(0,0)"/>
<path d="" fill="#FFFFFF" transform="translate(0,0)"/>
<path d="" fill="#FFFFFF" transform="translate(0,0)"/>
<path d="" fill="#FFFFFF" transform="translate(0,0)"/>
<path d="" fill="#FFFFFF" transform="translate(0,0)"/>
<path d="" fill="#FFFFFF" transform="translate(0,0)"/>
<path d="" fill="#FFFFFF" transform="translate(0,0)"/>
<path d="" fill="#FFFFFF" transform="translate(0,0)"/>
<path d="" fill="#FFFFFF" transform="translate(0,0)"/>
<path d="" fill="#FFFFFF" transform="translate(0,0)"/>
<path d="" fill="#FFFFFF" transform="translate(0,0)"/>
<path d="" fill="#FFFFFF" transform="translate(0,0)"/>
<path d="" fill="#FFFFFF" transform="translate(0,0)"/>
<path d="" fill="#FFFFFF" transform="translate(0,0)"/>
<path d="" fill="#FFFFFF" transform="translate(0,0)"/>
<path d="" fill="#FFFFFF" transform="translate(0,0)"/>
<path d="" fill="#FFFFFF" transform="translate(0,0)"/>
<path d="" fill="#FFFFFF" transform="translate(0,0)"/>
<path d="" fill="#FFFFFF" transform="translate(0,0)"/>
<path d="" fill="#FFFFFF" transform="translate(0,0)"/>
<path d="" fill="#FFFFFF" transform="translate(0,0)"/>
<path d="" fill="#FFFFFF" transform="translate(0,0)"/>
<path d="" fill="#FFFFFF" transform="translate(0,0)"/>
<path d="" fill="#FFFFFF" transform="translate(0,0)"/>
<path d="" fill="#FFFFFF" transform="translate(0,0)"/>
<path d="" fill="#FFFFFF" transform="translate(0,0)"/>
<path d="" fill="#FFFFFF" transform="translate(0,0)"/>
<path d="" fill="#FFFFFF" transform="translate(0,0)"/>
<path d="" fill="#FFFFFF" transform="translate(0,0)"/>
<path d="" fill="#FFFFFF" transform="translate(0,0)"/>
<path d="" fill="#FFFFFF" transform="translate(0,0)"/>
<path d="" fill="#FFFFFF" transform="translate(0,0)"/>
<path d="" fill="#FFFFFF" transform="translate(0,0)"/>
<path d="" fill="#FFFFFF" transform="translate(0,0)"/>
<path d="" fill="#FFFFFF" transform="translate(0,0)"/>
<path d="" fill="#FFFFFF" transform="translate(0,0)"/>
<path d="" fill="#FFFFFF" transform="translate(0,0)"/>
<path d="" fill="#FFFFFF" transform="translate(0,0)"/>
<path d="" fill="#FFFFFF" transform="translate(0,0)"/>
<path d="" fill="#FFFFFF" transform="translate(0,0)"/>
<path d="" fill="#FFFFFF" transform="translate(0,0)"/>
<path d="" fill="#FFFFFF" transform="translate(0,0)"/>
<path d="" fill="#FFFFFF" transform="translate(0,0)"/>
<path d="" fill="#FFFFFF" transform="translate(0,0)"/>
<path d="" fill="#FFFFFF" transform="translate(0,0)"/>
<path d="" fill="#FFFFFF" transform="translate(0,0)"/>
<path d="" fill="#FFFFFF" transform="translate(0,0)"/>
<path d="" fill="#FFFFFF" transform="translate(0,0)"/>
<path d="" fill="#FFFFFF" transform="translate(0,0)"/>
<path d="" fill="#FFFFFF" transform="translate(0,0)"/>
<path d="" fill="#FFFFFF" transform="translate(0,0)"/>
<path d="" fill="#FFFFFF" transform="translate(0,0)"/>
<path d="" fill="#FFFFFF" transform="translate(0,0)"/>
<path d="" fill="#FFFFFF" transform="translate(0,0)"/>
<path d="" fill="#FFFFFF" transform="translate(0,0)"/>
<path d="" fill="#FFFFFF" transform="translate(0,0)"/>
<path d="" fill="#FFFFFF" transform="translate(0,0)"/>
<path d="" fill="#FFFFFF" transform="translate(0,0)"/>
<path d="" fill="#FFFFFF" transform="translate(0,0)"/>
<path d="" fill="#FFFFFF" transform="translate(0,0)"/>
<path d="" fill="#FFFFFF" transform="translate(0,0)"/>
<path d="" fill="#FFFFFF" transform="translate(0,0)"/>
<path d="" fill="#FFFFFF" transform="translate(0,0)"/>
<path d="" fill="#FFFFFF" transform="translate(0,0)"/>
<path d="" fill="#FFFFFF" transform="translate(0,0)"/>
<path d="" fill="#FFFFFF" transform="translate(0,0)"/>
<path d="" fill="#FFFFFF" transform="translate(0,0)"/>
<path d="" fill="#FFFFFF" transform="translate(0,0)"/>
<path d="" fill="#FFFFFF" transform="translate(0,0)"/>
<path d="" fill="#FFFFFF" transform="translate(0,0)"/>
<path d="" fill="#FFFFFF" transform="translate(0,0)"/>
<path d="" fill="#FFFFFF" transform="translate(0,0)"/>
<path d="" fill="#FFFFFF" transform="translate(0,0)"/>
<path d="" fill="#FFFFFF" transform="translate(0,0)"/>
<path d="" fill="#FFFFFF" transform="translate(0,0)"/>
<path d="" fill="#FFFFFF" transform="translate(0,0)"/>
<path d="" fill="#FFFFFF" transform="translate(0,0)"/>
<path d="" fill="#FFFFFF" transform="translate(0,0)"/>
<path d="" fill="#FFFFFF" transform="translate(0,0)"/>
<path d="" fill="#FFFFFF" transform="translate(0,0)"/>
<path d="" fill="#FFFFFF" transform="translate(0,0)"/>
<path d="" fill="#FFFFFF" transform="translate(0,0)"/>
<path d="" fill="#FFFFFF" transform="translate(0,0)"/>
<path d="" fill="#FFFFFF" transform="translate(0,0)"/>
<path d="" fill="#FFFFFF" transform="translate(0,0)"/>
<path d="" fill="#FFFFFF" transform="translate(0,0)"/>
<path d="" fill="#FFFFFF" transform="translate(0,0)"/>
<path d="" fill="#FFFFFF" transform="translate(0,0)"/>
<path d="" fill="#FFFFFF" transform="translate(0,0)"/>
<path d="" fill="#FFFFFF" transform="translate(0,0)"/>
<path d="" fill="#FFFFFF" transform="translate(0,0)"/>
<path d="" fill="#FFFFFF" transform="translate(0,0)"/>
<path d="" fill="#FFFFFF" transform="translate(0,0)"/>
<path d="" fill="#FFFFFF" transform="translate(0,0)"/>
<path d="" fill="#FFFFFF" transform="translate(0,0)"/>
<path d="" fill="#FFFFFF" transform="translate(0,0)"/>
<path d="" fill="#FFFFFF" transform="translate(0,0)"/>
<path d="" fill="#FFFFFF" transform="translate(0,0)"/>
<path d="" fill="#FFFFFF" transform="translate(0,0)"/>
<path d="" fill="#FFFFFF" transform="translate(0,0)"/>
<path d="" fill="#FFFFFF" transform="translate(0,0)"/>
<path d="" fill="#FFFFFF" transform="translate(0,0)"/>
<path d="" fill="#FFFFFF" transform="translate(0,0)"/>
<path d="" fill="#FFFFFF" transform="translate(0,0)"/>
<path d="" fill="#FFFFFF" transform="translate(0,0)"/>
<path d="" fill="#FFFFFF" transform="translate(0,0)"/>
<path d="" fill="#FFFFFF" transform="translate(0,0)"/>
<path d="" fill="#FFFFFF" transform="translate(0,0)"/>
<path d="" fill="#FFFFFF" transform="translate(0,0)"/>
<path d="" fill="#FFFFFF" transform="translate(0,0)"/>
<path d="" fill="#FFFFFF" transform="translate(0,0)"/>
<path d="" fill="#FFFFFF" transform="translate(0,0)"/>
<path d="" fill="#FFFFFF" transform="translate(0,0)"/>
<path d="" fill="#FFFFFF" transform="translate(0,0)"/>
<path d="" fill="#FFFFFF" transform="translate(0,0)"/>
<path d="" fill="#FFFFFF" transform="translate(0,0)"/>
<path d="" fill="#FFFFFF" transform="translate(0,0)"/>
<path d="" fill="#FFFFFF" transform="translate(0,0)"/>
<path d="" fill="#FFFFFF" transform="translate(0,0)"/>
<path d="" fill="#FFFFFF" transform="translate(0,0)"/>
<path d="" fill="#FFFFFF" transform="translate(0,0)"/>
<path d="" fill="#FFFFFF" transform="translate(0,0)"/>
<path d="" fill="#FFFFFF" transform="translate(0,0)"/>
<path d="" fill="#FFFFFF" transform="translate(0,0)"/>
<path d="" fill="#FFFFFF" transform="translate(0,0)"/>
<path d="" fill="#FFFFFF" transform="translate(0,0)"/>
<path d="" fill="#FFFFFF" transform="translate(0,0)"/>
<path d="" fill="#FFFFFF" transform="translate(0,0)"/>
<path d="" fill="#FFFFFF" transform="translate(0,0)"/>
<path d="" fill="#FFFFFF" transform="translate(0,0)"/>
<path d="" fill="#FFFFFF" transform="translate(0,0)"/>
<path d="" fill="#FFFFFF" transform="translate(0,0)"/>
<path d="" fill="#FFFFFF" transform="translate(0,0)"/>
<path d="" fill="#FFFFFF" transform="translate(0,0)"/>
<path d="" fill="#FFFFFF" transform="translate(0,0)"/>
<path d="" fill="#FFFFFF" transform="translate(0,0)"/>
<path d="" fill="#FFFFFF" transform="translate(0,0)"/>
<path d="" fill="#FFFFFF" transform="translate(0,0)"/>
<path d="" fill="#FFFFFF" transform="translate(0,0)"/>
<path d="" fill="#FFFFFF" transform="translate(0,0)"/>
<path d="" fill="#FFFFFF" transform="translate(0,0)"/>
</svg>
