<svg width="400" viewBox="0 0 972 560" fill="none" xmlns="http://www.w3.org/2000/svg">
	<path
		d="M75.6962 152.28L75.1853 406.503H151.335L150.824 315.453L232.596 315.969L232.085 406.507H304.146V152.283L230.552 151.767L231.574 249.978L149.802 249.467L149.802 152.279L75.6962 152.28Z"
		fill="black"
	/>
	<path
		d="M799.208 83.2542H921.555C921.555 83.2542 924.107 83.3407 926.578 86.7859C929.197 90.4375 929.708 97.8222 927.225 101.864C924.954 105.561 922.159 106.21 922.159 106.21L799.862 106.311L799.208 83.2542Z"
		fill="#0055D4"
	/>
	<path
		d="M799.208 41.5366H921.555C921.555 41.5366 924.107 41.6232 926.578 45.0684C929.197 48.72 929.708 56.1046 927.225 60.1467C924.954 63.8435 922.159 64.4927 922.159 64.4927L799.862 64.5932L799.208 41.5366Z"
		fill="#0055D4"
	/>
	<path
		d="M799.12 0H921.467C921.467 0 924.019 0.0865637 926.49 3.53177C929.109 7.18338 929.62 14.5679 927.137 18.61C924.866 22.3068 922.071 22.9561 922.071 22.9561L799.774 23.0566L799.12 0Z"
		fill="#0055D4"
	/>
	<path
		d="M834.998 23.0483C834.998 23.0483 832.642 24.6121 831.246 26.9316C829.586 30.4393 829.657 33.6071 830.85 37.187C831.857 39.9815 834.967 41.8684 834.967 41.8684L801.554 47.8898L801.593 15.6658L834.998 23.0483Z"
		fill="#0055D4"
	/>
	<path
		d="M835.298 64.5826C835.298 64.5826 832.942 66.1481 831.547 68.4666C829.886 71.9765 829.957 75.1459 831.152 78.7242C832.159 81.5201 835.269 83.406 835.269 83.406L802.295 85.1976L801.898 57.199L835.298 64.5826Z"
		fill="#0055D4"
	/>
	<path
		d="M345.516 348.254C345.516 348.254 344.78 401.12 344.989 402.53C347.864 412.467 357.713 410.267 361.344 401.348C365.817 390.361 373.035 372.863 373.035 372.863C377.75 359.657 378.708 352.968 383.622 339.949C385.878 333.97 348.754 347.435 348.754 347.435L345.516 348.254Z"
		fill="#0055D4"
	/>
	<path
		d="M484.876 332.461C512.99 332.461 535.781 309.651 535.781 281.512C535.781 253.374 512.99 230.563 484.876 230.563C456.762 230.563 433.971 253.374 433.971 281.512C433.971 309.651 456.762 332.461 484.876 332.461Z"
		fill="#FF2A2A"
	/>
	<path
		d="M679.473 153.819L668.673 406.767L728.615 406.792V310.563L772.356 406.792H800.406C800.497 406.277 800.581 405.199 800.666 404.681C800.683 404.589 800.709 404.495 800.717 404.402C800.675 404.368 800.628 404.343 800.587 404.306C800.15 403.849 799.936 403.392 799.843 402.771C799.792 402.409 799.68 402.057 799.638 401.693C799.579 401.282 799.488 400.878 799.403 400.471C799.353 400.037 799.219 399.601 799.336 399.162C799.37 398.72 799.404 398.275 799.48 397.836C799.539 397.407 799.539 396.977 799.576 396.545C799.643 395.769 799.737 394.995 799.893 394.232C800.141 393.061 800.427 391.9 800.706 390.736C800.942 389.719 801.132 388.695 801.306 387.666C801.494 386.426 801.678 385.182 801.737 383.927C801.839 382.511 801.917 381.09 801.915 379.67C801.73 378.188 801.606 376.698 801.367 375.222C801.212 373.964 801.167 372.695 800.924 371.448C800.718 370.306 800.686 369.163 800.719 368.004V365.478C800.661 364.924 800.597 364.372 800.549 363.817C800.455 361.742 800.465 359.668 800.608 357.595C800.684 356.294 800.693 354.989 800.667 353.686C800.634 353.109 800.569 352.537 800.493 351.964C800.451 351.477 800.384 350.994 800.297 350.512C800.201 349.831 800.143 349.147 800.028 348.468C799.901 347.595 799.795 346.716 799.706 345.838C799.587 344.872 799.467 343.907 799.38 342.938C799.257 341.749 799.119 340.543 799.263 339.351C799.339 338.87 799.487 338.42 799.606 337.951C799.76 337.312 799.904 336.672 799.963 336.016C799.988 335.839 800.005 335.662 800.022 335.485V334.933C800.022 334.51 800.022 334.087 800.022 333.663C799.971 333.082 799.915 332.501 799.809 331.928C799.667 331.174 799.516 330.421 799.374 329.667C799.265 329.069 799.143 328.447 799.315 327.85C799.382 327.608 799.456 327.372 799.485 327.12C799.552 326.729 799.46 326.313 799.502 325.919C799.502 325.478 799.51 325.034 799.536 324.593C799.561 324.204 799.595 323.815 799.67 323.432C799.679 323.365 799.704 323.29 799.679 323.102C799.662 322.922 799.645 322.743 799.603 322.567C799.527 322.206 799.454 321.846 799.451 321.475C799.425 321.09 799.409 320.705 799.338 320.323C799.287 320.028 799.27 319.735 799.279 319.436C799.279 319.254 799.281 319.07 799.279 318.888C799.27 318.707 799.279 318.529 799.262 318.349C799.254 318.183 799.229 318.017 799.203 317.853C799.153 317.591 799.103 317.327 799.073 317.061C798.703 315.066 798.363 313.067 797.895 311.092L742.118 153.823L679.473 153.819ZM802.384 392.971C802.253 393.529 802.111 394.085 801.993 394.645C801.934 394.943 801.888 395.243 801.845 395.545C801.92 395.228 801.994 394.91 802.067 394.593C802.196 394.052 802.304 393.515 802.384 392.971ZM924.525 403.336C924.542 403.878 924.567 404.417 924.584 404.958C924.601 405.382 924.601 405.798 924.609 406.211H924.66L924.525 403.336Z"
		fill="black"
	/>
	<path
		d="M913.859 153.819L924.66 406.767L864.717 406.792V310.563L820.976 406.792H792.927C792.835 406.277 792.751 405.199 792.666 404.681C792.649 404.589 792.624 404.495 792.615 404.402C792.658 404.368 792.705 404.343 792.746 404.306C793.183 403.849 793.396 403.392 793.49 402.771C793.54 402.409 793.652 402.057 793.694 401.693C793.753 401.282 793.845 400.878 793.929 400.471C793.979 400.037 794.113 399.601 793.996 399.162C793.963 398.72 793.929 398.275 793.852 397.836C793.793 397.407 793.793 396.977 793.756 396.545C793.689 395.769 793.596 394.995 793.439 394.232C793.191 393.061 792.905 391.9 792.626 390.736C792.391 389.719 792.201 388.695 792.027 387.666C791.838 386.426 791.655 385.182 791.596 383.927C791.493 382.511 791.416 381.09 791.417 379.67C791.602 378.188 791.726 376.698 791.965 375.222C792.121 373.964 792.165 372.695 792.409 371.448C792.615 370.306 792.647 369.163 792.613 368.004V365.478C792.672 364.924 792.735 364.372 792.783 363.817C792.877 361.742 792.867 359.668 792.724 357.595C792.648 356.294 792.64 354.989 792.665 353.686C792.699 353.109 792.764 352.537 792.839 351.964C792.881 351.477 792.949 350.994 793.035 350.512C793.131 349.831 793.189 349.147 793.305 348.468C793.432 347.595 793.538 346.716 793.626 345.838C793.745 344.872 793.866 343.907 793.953 342.938C794.075 341.749 794.213 340.543 794.069 339.351C793.994 338.87 793.846 338.42 793.726 337.951C793.572 337.312 793.428 336.672 793.369 336.016C793.344 335.839 793.327 335.662 793.311 335.485V334.933C793.311 334.51 793.311 334.087 793.311 333.663C793.361 333.082 793.417 332.501 793.523 331.928C793.666 331.174 793.816 330.421 793.958 329.667C794.068 329.069 794.19 328.447 794.017 327.85C793.95 327.608 793.876 327.372 793.847 327.12C793.78 326.729 793.873 326.313 793.831 325.919C793.831 325.478 793.823 325.034 793.797 324.593C793.772 324.204 793.738 323.815 793.662 323.432C793.654 323.365 793.629 323.29 793.654 323.102C793.671 322.922 793.687 322.743 793.729 322.567C793.805 322.206 793.878 321.846 793.882 321.475C793.907 321.09 793.924 320.705 793.995 320.323C794.045 320.028 794.062 319.735 794.053 319.436C794.054 319.254 794.051 319.07 794.053 318.888C794.062 318.707 794.053 318.529 794.07 318.349C794.079 318.183 794.104 318.017 794.129 317.853C794.18 317.591 794.229 317.327 794.26 317.061C794.63 315.066 794.97 313.067 795.438 311.092L851.215 153.823L913.859 153.819ZM790.948 392.971C791.08 393.529 791.221 394.085 791.34 394.645C791.399 394.943 791.445 395.243 791.488 395.545C791.412 395.228 791.338 394.91 791.266 394.593C791.136 394.052 791.028 393.515 790.948 392.971ZM668.807 403.336C668.79 403.878 668.765 404.417 668.748 404.958C668.732 405.382 668.731 405.798 668.723 406.211H668.673L668.807 403.336Z"
		fill="black"
	/>
	<path
		d="M820.967 0.104122L439.955 0.79758C439.955 0.79758 349.053 2.72316 347.119 92.9563C346.187 136.428 345.648 330.918 345.174 400.316C345.951 400.331 356.977 389.202 357.753 389.219C367.134 388.362 357.362 385.252 363.657 385.452C367.575 385.132 368.194 383.43 368.057 383.2C403.11 297.985 442.33 106.397 572.029 106.397H822.127C822.126 105.886 822.128 105.374 822.127 104.862C822.119 101.058 822.111 97.2546 822.08 93.4505C822.042 88.5745 821.994 83.696 821.825 78.8222C821.615 73.5297 821.306 68.2436 820.757 62.9741C820.049 55.9242 819.456 48.8699 819.314 41.7809C819.133 33.1967 819.544 24.6095 819.852 16.0318C820.112 10.7218 820.374 5.3921 820.967 0.104122ZM900.921 65.5532C900.92 65.7268 900.921 65.8964 900.921 66.0792H901.013C900.982 65.9088 900.951 65.7337 900.921 65.5532ZM871.102 99.8801C871.079 100.007 871.071 100.111 871.106 100.095C871.104 100.034 871.104 99.9488 871.102 99.8801ZM864.597 103.746V105.241C864.659 104.913 864.82 104.065 864.864 103.894C864.781 103.855 864.685 103.799 864.597 103.746ZM971.173 105.309C971.172 105.313 971.15 105.324 971.142 105.332C971.15 105.327 971.157 105.317 971.173 105.309ZM971.142 105.332C971.056 105.371 970.966 105.416 970.875 105.463C970.868 105.479 970.86 105.502 970.852 105.517C971.053 105.439 971.117 105.38 971.142 105.332Z"
		fill="#0055D4"
	/>
	<path
		d="M799.208 83.2542H921.555C921.555 83.2542 924.107 83.3407 926.578 86.7859C929.197 90.4375 929.708 97.8222 927.225 101.864C924.954 105.561 922.159 106.21 922.159 106.21L799.862 106.311L799.208 83.2542Z"
		fill="#0055D4"
	/>
	<path
		d="M799.208 41.5366H921.555C921.555 41.5366 924.107 41.6232 926.578 45.0684C929.197 48.72 929.708 56.1046 927.225 60.1467C924.954 63.8435 922.159 64.4927 922.159 64.4927L799.862 64.5932L799.208 41.5366Z"
		fill="#0055D4"
	/>
	<path
		d="M799.12 0H921.467C921.467 0 924.019 0.0865637 926.49 3.53177C929.109 7.18338 929.62 14.5679 927.137 18.61C924.866 22.3068 922.071 22.9561 922.071 22.9561L799.774 23.0566L799.12 0Z"
		fill="#0055D4"
	/>
	<path
		d="M834.998 23.0483C834.998 23.0483 832.642 24.6121 831.246 26.9316C829.586 30.4393 829.657 33.6071 830.85 37.187C831.857 39.9815 834.967 41.8684 834.967 41.8684L801.554 47.8898L801.593 15.6658L834.998 23.0483Z"
		fill="#0055D4"
	/>
	<path
		d="M835.298 64.5826C835.298 64.5826 832.942 66.1481 831.547 68.4666C829.886 71.9765 829.957 75.1459 831.152 78.7242C832.159 81.5201 835.269 83.406 835.269 83.406L802.295 85.1976L801.898 57.199L835.298 64.5826Z"
		fill="#0055D4"
	/>
	<path
		d="M625.657 211.747C625.657 211.747 626.392 158.88 626.184 157.47C623.309 147.533 613.46 149.734 609.829 158.652C605.356 169.64 598.138 187.138 598.138 187.138C593.423 200.344 592.465 207.032 587.551 220.052C585.295 226.03 622.419 212.565 622.419 212.565L625.657 211.747Z"
		fill="#0055D4"
	/>
	<path
		d="M150.206 559.896L531.217 559.203C531.217 559.203 622.12 557.277 624.054 467.044C624.986 423.572 625.524 229.082 625.999 159.685C625.222 159.669 614.196 170.799 613.419 170.781C604.039 171.638 613.81 174.749 607.516 174.548C603.598 174.868 602.979 176.57 603.116 176.8C568.063 262.015 528.842 453.603 399.143 453.603H149.046C149.046 454.115 149.045 454.627 149.046 455.138C149.054 458.942 149.062 462.746 149.092 466.55C149.131 471.426 149.179 476.304 149.348 481.178C149.558 486.471 149.867 491.757 150.416 497.026C151.124 504.076 151.717 511.13 151.859 518.219C152.04 526.804 151.629 535.391 151.32 543.969C151.061 549.279 150.799 554.608 150.206 559.896ZM70.2521 494.447C70.2525 494.274 70.2517 494.104 70.2521 493.921H70.1603C70.1911 494.091 70.222 494.267 70.2521 494.447ZM100.071 460.12C100.094 459.994 100.102 459.89 100.067 459.905C100.069 459.967 100.068 460.052 100.071 460.12ZM106.576 456.254V454.759C106.514 455.087 106.353 455.936 106.309 456.106C106.392 456.145 106.488 456.201 106.576 456.254ZM0 454.691C0.00131125 454.687 0.0231228 454.676 0.0308361 454.668C0.0231228 454.673 0.0154265 454.676 0 454.684V454.691ZM0.0308361 454.668C0.116453 454.63 0.206722 454.584 0.297739 454.537C0.304758 454.522 0.313153 454.499 0.320866 454.483C0.11955 454.561 0.0555185 454.62 0.0308361 454.668Z"
		fill="#0055D4"
	/>
	<path
		d="M171.965 476.746H49.6176C49.6176 476.746 47.0657 476.659 44.595 473.214C41.9763 469.562 41.4653 462.178 43.9482 458.136C46.219 454.439 49.0139 453.79 49.0139 453.79L171.311 453.689L171.965 476.746Z"
		fill="#0055D4"
	/>
	<path
		d="M171.965 518.463H49.6176C49.6176 518.463 47.0657 518.377 44.595 514.932C41.9763 511.28 41.4653 503.895 43.9482 499.853C46.219 496.157 49.0139 495.507 49.0139 495.507L171.311 495.407L171.965 518.463Z"
		fill="#0055D4"
	/>
	<path
		d="M172.053 560H49.7056C49.7056 560 47.1536 559.913 44.6829 556.468C42.0642 552.817 41.5532 545.432 44.0361 541.39C46.3069 537.693 49.1018 537.044 49.1018 537.044L171.399 536.943L172.053 560Z"
		fill="#0055D4"
	/>
	<path
		d="M136.175 536.952C136.175 536.952 138.531 535.388 139.927 533.069C141.587 529.561 141.516 526.393 140.323 522.813C139.316 520.019 136.206 518.132 136.206 518.132L169.619 512.11L169.58 544.334L136.175 536.952Z"
		fill="#0055D4"
	/>
	<path
		d="M135.875 495.417C135.875 495.417 138.231 493.852 139.626 491.534C141.287 488.024 141.216 484.854 140.021 481.276C139.014 478.48 135.904 476.594 135.904 476.594L168.878 474.802L169.275 502.801L135.875 495.417Z"
		fill="#0055D4"
	/>
</svg>